<?xml version="1.0" encoding="UTF-8" standalone="no"?>
<!DOCTYPE svg PUBLIC "-//W3C//DTD SVG 1.1//EN" "http://www.w3.org/Graphics/SVG/1.1/DTD/svg11.dtd">
<svg width="100%" height="100%" viewBox="0 0 238 73" version="1.1" xmlns="http://www.w3.org/2000/svg" xmlns:xlink="http://www.w3.org/1999/xlink" xml:space="preserve" xmlns:serif="http://www.serif.com/" style="fill-rule:evenodd;clip-rule:evenodd;stroke-linejoin:round;stroke-miterlimit:2;">
    <g transform="matrix(1,0,0,1,67.5093,20.2937)">
        <path d="M0,14.484L-4.743,18.971L-4.743,26.163L-11.118,26.163L-11.118,-11.679L-4.743,-11.679L-4.743,11.169L8.466,-1.072L16.116,-1.072L4.743,10.353L17.187,26.163L9.435,26.163L0,14.484Z" style="fill:white;fill-rule:nonzero;"/>
    </g>
    <g transform="matrix(1,0,0,1,105.759,26.7201)">
        <path d="M0,12.29C1.53,10.727 2.295,8.669 2.295,6.119C2.295,3.569 1.53,1.513 0,-0.052C-1.53,-1.615 -3.468,-2.398 -5.814,-2.398C-8.16,-2.398 -10.09,-1.615 -11.603,-0.052C-13.116,1.513 -13.872,3.569 -13.872,6.119C-13.872,8.669 -13.116,10.727 -11.603,12.29C-10.09,13.854 -8.16,14.637 -5.814,14.637C-3.468,14.637 -1.53,13.854 0,12.29M-13.26,18.309C-15.47,17.118 -17.196,15.461 -18.437,13.336C-19.678,11.211 -20.298,8.806 -20.298,6.119C-20.298,3.434 -19.678,1.037 -18.437,-1.071C-17.196,-3.18 -15.47,-4.828 -13.26,-6.019C-11.05,-7.208 -8.568,-7.804 -5.814,-7.804C-3.026,-7.804 -0.527,-7.208 1.683,-6.019C3.893,-4.828 5.618,-3.18 6.86,-1.071C8.101,1.037 8.721,3.434 8.721,6.119C8.721,8.806 8.101,11.211 6.86,13.336C5.618,15.461 3.893,17.118 1.683,18.309C-0.527,19.499 -3.026,20.094 -5.814,20.094C-8.568,20.094 -11.05,19.499 -13.26,18.309" style="fill:white;fill-rule:nonzero;"/>
    </g>
    <g transform="matrix(1,0,0,1,125.496,20.7017)">
        <path d="M0,24.327C-2.244,23.137 -3.996,21.479 -5.253,19.354C-6.511,17.229 -7.14,14.824 -7.14,12.138C-7.14,9.452 -6.511,7.056 -5.253,4.947C-3.996,2.839 -2.253,1.19 -0.025,0C2.201,-1.19 4.743,-1.785 7.599,-1.785C10.284,-1.785 12.639,-1.241 14.663,-0.153C16.685,0.935 18.207,2.499 19.227,4.539L14.331,7.394C13.548,6.138 12.571,5.194 11.398,4.564C10.226,3.935 8.941,3.621 7.548,3.621C5.167,3.621 3.195,4.394 1.632,5.941C0.067,7.489 -0.714,9.555 -0.714,12.138C-0.714,14.722 0.059,16.788 1.606,18.334C3.153,19.882 5.133,20.655 7.548,20.655C8.941,20.655 10.226,20.341 11.398,19.711C12.571,19.083 13.548,18.139 14.331,16.881L19.227,19.737C18.173,21.777 16.634,23.349 14.611,24.454C12.588,25.559 10.251,26.112 7.599,26.112C4.776,26.112 2.244,25.517 0,24.327" style="fill:white;fill-rule:nonzero;"/>
    </g>
    <g transform="matrix(1,0,0,1,173.691,33.1452)">
        <path d="M0,-11.22C2.074,-9.213 3.111,-6.239 3.111,-2.295L3.111,13.311L-3.264,13.311L-3.264,-1.479C-3.264,-3.859 -3.825,-5.652 -4.947,-6.86C-6.069,-8.066 -7.667,-8.67 -9.741,-8.67C-12.087,-8.67 -13.94,-7.964 -15.3,-6.553C-16.66,-5.142 -17.34,-3.111 -17.34,-0.458L-17.34,13.311L-23.715,13.311L-23.715,-24.531L-17.34,-24.531L-17.34,-10.761C-16.287,-11.883 -14.986,-12.741 -13.438,-13.336C-11.892,-13.931 -10.167,-14.229 -8.262,-14.229C-4.828,-14.229 -2.074,-13.226 0,-11.22" style="fill:white;fill-rule:nonzero;"/>
    </g>
    <g transform="matrix(1,0,0,1,183.993,39.5456)">
        <path d="M0,6.069C-0.816,5.271 -1.224,4.258 -1.224,3.035C-1.224,1.777 -0.825,0.757 -0.026,-0.025C0.773,-0.807 1.767,-1.199 2.958,-1.199C4.147,-1.199 5.142,-0.807 5.941,-0.025C6.74,0.757 7.14,1.777 7.14,3.035C7.14,4.258 6.732,5.271 5.916,6.069C5.1,6.869 4.113,7.268 2.958,7.268C1.802,7.268 0.816,6.869 0,6.069" style="fill:white;fill-rule:nonzero;"/>
    </g>
    <g transform="matrix(1,0,0,1,-221.152,-82.7009)">
        <path d="M418.507,101.923L424.882,101.923L424.882,129.157L418.507,129.157L418.507,101.923ZM418.813,96.339C418.03,95.608 417.64,94.699 417.64,93.61C417.64,92.523 418.03,91.613 418.813,90.882C419.594,90.151 420.564,89.785 421.72,89.785C422.875,89.785 423.844,90.134 424.627,90.831C425.408,91.528 425.8,92.403 425.8,93.457C425.8,94.579 425.417,95.523 424.652,96.288C423.887,97.053 422.91,97.436 421.72,97.436C420.564,97.436 419.594,97.07 418.813,96.339" style="fill:white;fill-rule:nonzero;"/>
    </g>
    <g transform="matrix(1,0,0,1,218.748,39.9035)">
        <path d="M0,-14.077C-1.411,-12.869 -2.27,-11.263 -2.575,-9.257L12.877,-9.257C12.605,-11.228 11.772,-12.827 10.378,-14.051C8.984,-15.275 7.25,-15.888 5.177,-15.888C3.137,-15.888 1.411,-15.283 0,-14.077M18.845,-5.024L-2.524,-5.024C-2.151,-3.017 -1.173,-1.429 0.408,-0.256C1.989,0.917 3.953,1.504 6.299,1.504C9.29,1.504 11.755,0.518 13.693,-1.454L17.111,2.473C15.887,3.935 14.339,5.04 12.47,5.788C10.599,6.536 8.492,6.91 6.146,6.91C3.153,6.91 0.518,6.316 -1.759,5.125C-4.038,3.935 -5.797,2.277 -7.038,0.152C-8.279,-1.973 -8.899,-4.378 -8.899,-7.064C-8.899,-9.716 -8.296,-12.104 -7.089,-14.229C-5.882,-16.354 -4.208,-18.012 -2.065,-19.202C0.077,-20.391 2.49,-20.987 5.177,-20.987C7.829,-20.987 10.2,-20.4 12.291,-19.227C14.382,-18.055 16.014,-16.405 17.187,-14.281C18.36,-12.155 18.947,-9.699 18.947,-6.911C18.947,-6.469 18.912,-5.84 18.845,-5.024" style="fill:white;fill-rule:nonzero;"/>
    </g>
    <g transform="matrix(1,0,0,1,60.5393,55.2458)">
        <path d="M0,1.344L-2.207,3.585L-2.207,6.705L-3.93,6.705L-3.93,-5.361L-2.207,-5.361L-2.207,1.379L4.344,-5.361L6.308,-5.361L1.155,0.069L6.636,6.705L4.619,6.705L0,1.344Z" style="fill:rgb(195,70,0);fill-rule:nonzero;"/>
    </g>
    <g transform="matrix(1,0,0,1,74.5439,54.5818)">
        <path d="M0,5.619C0.465,5.349 0.83,4.97 1.094,4.482C1.359,3.993 1.491,3.433 1.491,2.801C1.491,2.169 1.359,1.609 1.094,1.12C0.83,0.632 0.465,0.256 0,-0.009C-0.466,-0.273 -0.991,-0.405 -1.577,-0.405C-2.164,-0.405 -2.689,-0.273 -3.154,-0.009C-3.62,0.256 -3.988,0.632 -4.258,1.12C-4.528,1.609 -4.663,2.169 -4.663,2.801C-4.663,3.433 -4.528,3.993 -4.258,4.482C-3.988,4.97 -3.62,5.349 -3.154,5.619C-2.689,5.889 -2.164,6.024 -1.577,6.024C-0.991,6.024 -0.466,5.889 0,5.619M-4.025,6.869C-4.749,6.466 -5.315,5.912 -5.723,5.206C-6.131,4.499 -6.334,3.697 -6.334,2.801C-6.334,1.905 -6.131,1.103 -5.723,0.396C-5.315,-0.31 -4.749,-0.862 -4.025,-1.258C-3.301,-1.655 -2.485,-1.853 -1.577,-1.853C-0.67,-1.853 0.143,-1.655 0.861,-1.258C1.579,-0.862 2.143,-0.31 2.551,0.396C2.959,1.103 3.163,1.905 3.163,2.801C3.163,3.697 2.959,4.499 2.551,5.206C2.143,5.912 1.579,6.466 0.861,6.869C0.143,7.271 -0.67,7.472 -1.577,7.472C-2.485,7.472 -3.301,7.271 -4.025,6.869" style="fill:rgb(195,70,0);fill-rule:nonzero;"/>
    </g>
    <g transform="matrix(1,0,0,1,82.1798,53.3317)">
        <path d="M0,8.119C-0.73,7.717 -1.302,7.162 -1.715,6.456C-2.129,5.749 -2.336,4.948 -2.336,4.051C-2.336,3.155 -2.129,2.354 -1.715,1.647C-1.302,0.94 -0.73,0.388 0,-0.008C0.73,-0.405 1.56,-0.603 2.491,-0.603C3.318,-0.603 4.056,-0.436 4.705,-0.103C5.355,0.231 5.857,0.713 6.214,1.345L4.955,2.155C4.668,1.718 4.311,1.391 3.886,1.172C3.461,0.955 2.99,0.845 2.473,0.845C1.875,0.845 1.339,0.977 0.861,1.242C0.385,1.506 0.011,1.882 -0.259,2.371C-0.529,2.859 -0.664,3.419 -0.664,4.051C-0.664,4.695 -0.529,5.261 -0.259,5.749C0.011,6.237 0.385,6.614 0.861,6.878C1.339,7.142 1.875,7.274 2.473,7.274C2.99,7.274 3.461,7.165 3.886,6.947C4.311,6.729 4.668,6.401 4.955,5.965L6.214,6.757C5.857,7.389 5.355,7.875 4.705,8.214C4.056,8.553 3.318,8.722 2.491,8.722C1.56,8.722 0.73,8.521 0,8.119" style="fill:rgb(195,70,0);fill-rule:nonzero;"/>
    </g>
    <g transform="matrix(1,0,0,1,98.7438,57.3744)">
        <path d="M0,-3.637C0.683,-2.965 1.026,-1.98 1.026,-0.681L1.026,4.576L-0.629,4.576L-0.629,-0.492C-0.629,-1.376 -0.842,-2.043 -1.267,-2.491C-1.692,-2.939 -2.301,-3.163 -3.094,-3.163C-3.99,-3.163 -4.697,-2.902 -5.214,-2.379C-5.731,-1.856 -5.99,-1.106 -5.99,-0.129L-5.99,4.576L-7.645,4.576L-7.645,-8.213L-5.99,-8.213L-5.99,-3.267C-5.645,-3.703 -5.194,-4.042 -4.637,-4.284C-4.08,-4.525 -3.456,-4.645 -2.767,-4.645C-1.606,-4.645 -0.684,-4.309 0,-3.637" style="fill:rgb(195,70,0);fill-rule:nonzero;"/>
    </g>
    <g transform="matrix(1,0,0,1,-221.152,-25.3889)">
        <path d="M324.679,78.204L326.334,78.204L326.334,87.339L324.679,87.339L324.679,78.204ZM324.705,76.135C324.493,75.929 324.386,75.676 324.386,75.377C324.386,75.078 324.493,74.823 324.705,74.61C324.918,74.397 325.185,74.291 325.507,74.291C325.828,74.291 326.096,74.392 326.308,74.593C326.521,74.794 326.627,75.044 326.627,75.343C326.627,75.653 326.521,75.915 326.308,76.127C326.096,76.34 325.828,76.446 325.507,76.446C325.185,76.446 324.918,76.342 324.705,76.135" style="fill:rgb(195,70,0);fill-rule:nonzero;"/>
    </g>
    <g transform="matrix(1,0,0,1,110.775,59.9338)">
        <path d="M0,-5.085C-0.534,-4.602 -0.847,-3.97 -0.939,-3.189L4.921,-3.189C4.829,-3.959 4.516,-4.588 3.982,-5.076C3.447,-5.565 2.784,-5.809 1.991,-5.809C1.198,-5.809 0.534,-5.568 0,-5.085M6.472,-1.999L-0.939,-1.999C-0.836,-1.195 -0.483,-0.549 0.121,-0.061C0.724,0.428 1.474,0.672 2.37,0.672C3.462,0.672 4.341,0.305 5.007,-0.431L5.921,0.638C5.507,1.121 4.993,1.488 4.378,1.741C3.763,1.994 3.077,2.12 2.319,2.12C1.353,2.12 0.497,1.922 -0.25,1.525C-0.997,1.129 -1.574,0.575 -1.982,-0.138C-2.39,-0.85 -2.594,-1.655 -2.594,-2.551C-2.594,-3.436 -2.396,-4.235 -1.999,-4.947C-1.603,-5.659 -1.057,-6.214 -0.362,-6.61C0.333,-7.007 1.117,-7.205 1.991,-7.205C2.864,-7.205 3.643,-7.007 4.327,-6.61C5.01,-6.214 5.544,-5.659 5.93,-4.947C6.314,-4.235 6.507,-3.419 6.507,-2.5C6.507,-2.373 6.495,-2.207 6.472,-1.999" style="fill:rgb(195,70,0);fill-rule:nonzero;"/>
    </g>
    <g transform="matrix(1,0,0,1,134.587,51.3847)">
        <path d="M0,9.066L0,10.566L-8.756,10.566L-8.756,-1.5L-0.241,-1.5L-0.241,0L-7.033,0L-7.033,3.705L-0.982,3.705L-0.982,5.17L-7.033,5.17L-7.033,9.066L0,9.066Z" style="fill:rgb(195,70,0);fill-rule:nonzero;"/>
    </g>
    <g transform="matrix(1,0,0,1,145.472,60.9424)">
        <path d="M0,-7.205C0.683,-6.533 1.026,-5.548 1.026,-4.249L1.026,1.008L-0.629,1.008L-0.629,-4.06C-0.629,-4.944 -0.842,-5.611 -1.267,-6.059C-1.692,-6.507 -2.301,-6.731 -3.094,-6.731C-3.99,-6.731 -4.697,-6.47 -5.214,-5.947C-5.731,-5.424 -5.99,-4.674 -5.99,-3.697L-5.99,1.008L-7.645,1.008L-7.645,-8.127L-6.059,-8.127L-6.059,-6.748C-5.725,-7.22 -5.274,-7.581 -4.706,-7.834C-4.137,-8.087 -3.491,-8.213 -2.767,-8.213C-1.606,-8.213 -0.684,-7.877 0,-7.205" style="fill:rgb(195,70,0);fill-rule:nonzero;"/>
    </g>
    <g transform="matrix(1,0,0,1,155.9,58.3833)">
        <path d="M0,1.361C0.477,1.108 0.85,0.755 1.12,0.301C1.39,-0.153 1.525,-0.667 1.525,-1.242C1.525,-2.127 1.232,-2.842 0.646,-3.388C0.06,-3.933 -0.692,-4.206 -1.612,-4.206C-2.542,-4.206 -3.301,-3.933 -3.887,-3.388C-4.473,-2.842 -4.766,-2.127 -4.766,-1.242C-4.766,-0.667 -4.631,-0.153 -4.361,0.301C-4.091,0.755 -3.717,1.108 -3.241,1.361C-2.764,1.614 -2.221,1.74 -1.612,1.74C-1.014,1.74 -0.477,1.614 0,1.361M3.145,-5.568L3.145,2.326C3.145,3.923 2.749,5.104 1.956,5.868C1.164,6.632 -0.02,7.015 -1.595,7.015C-2.457,7.015 -3.278,6.897 -4.059,6.661C-4.841,6.426 -5.472,6.089 -5.955,5.653L-5.162,4.377C-4.737,4.745 -4.212,5.035 -3.585,5.247C-2.959,5.46 -2.313,5.567 -1.646,5.567C-0.577,5.567 0.212,5.314 0.724,4.808C1.235,4.302 1.491,3.533 1.491,2.498L1.491,1.774C1.1,2.246 0.621,2.599 0.052,2.835C-0.517,3.07 -1.135,3.188 -1.801,3.188C-2.675,3.188 -3.465,3.001 -4.171,2.628C-4.878,2.255 -5.432,1.731 -5.835,1.059C-6.237,0.387 -6.438,-0.38 -6.438,-1.242C-6.438,-2.104 -6.237,-2.871 -5.835,-3.543C-5.432,-4.215 -4.878,-4.735 -4.171,-5.103C-3.465,-5.47 -2.675,-5.654 -1.801,-5.654C-1.112,-5.654 -0.471,-5.528 0.12,-5.275C0.712,-5.022 1.198,-4.649 1.577,-4.155L1.577,-5.568L3.145,-5.568Z" style="fill:rgb(195,70,0);fill-rule:nonzero;"/>
    </g>
    <g transform="matrix(1,0,0,1,-221.152,-25.3889)">
        <path d="M384.041,78.204L385.696,78.204L385.696,87.339L384.041,87.339L384.041,78.204ZM384.067,76.135C383.855,75.929 383.748,75.676 383.748,75.377C383.748,75.078 383.855,74.823 384.067,74.61C384.28,74.397 384.547,74.291 384.869,74.291C385.19,74.291 385.458,74.392 385.67,74.593C385.883,74.794 385.989,75.044 385.989,75.343C385.989,75.653 385.883,75.915 385.67,76.127C385.458,76.34 385.19,76.446 384.869,76.446C384.547,76.446 384.28,76.342 384.067,76.135" style="fill:rgb(195,70,0);fill-rule:nonzero;"/>
    </g>
    <g transform="matrix(1,0,0,1,176.032,60.9424)">
        <path d="M0,-7.205C0.683,-6.533 1.026,-5.548 1.026,-4.249L1.026,1.008L-0.629,1.008L-0.629,-4.06C-0.629,-4.944 -0.842,-5.611 -1.267,-6.059C-1.692,-6.507 -2.301,-6.731 -3.094,-6.731C-3.99,-6.731 -4.697,-6.47 -5.214,-5.947C-5.731,-5.424 -5.99,-4.674 -5.99,-3.697L-5.99,1.008L-7.645,1.008L-7.645,-8.127L-6.059,-8.127L-6.059,-6.748C-5.725,-7.22 -5.274,-7.581 -4.706,-7.834C-4.137,-8.087 -3.491,-8.213 -2.767,-8.213C-1.606,-8.213 -0.684,-7.877 0,-7.205" style="fill:rgb(195,70,0);fill-rule:nonzero;"/>
    </g>
    <g transform="matrix(1,0,0,1,182.616,59.9338)">
        <path d="M0,-5.085C-0.534,-4.602 -0.847,-3.97 -0.939,-3.189L4.921,-3.189C4.829,-3.959 4.516,-4.588 3.982,-5.076C3.447,-5.565 2.784,-5.809 1.991,-5.809C1.198,-5.809 0.534,-5.568 0,-5.085M6.472,-1.999L-0.939,-1.999C-0.836,-1.195 -0.483,-0.549 0.121,-0.061C0.724,0.428 1.474,0.672 2.37,0.672C3.462,0.672 4.341,0.305 5.007,-0.431L5.921,0.638C5.507,1.121 4.993,1.488 4.378,1.741C3.763,1.994 3.077,2.12 2.319,2.12C1.353,2.12 0.497,1.922 -0.25,1.525C-0.997,1.129 -1.574,0.575 -1.982,-0.138C-2.39,-0.85 -2.594,-1.655 -2.594,-2.551C-2.594,-3.436 -2.396,-4.235 -1.999,-4.947C-1.603,-5.659 -1.057,-6.214 -0.362,-6.61C0.333,-7.007 1.117,-7.205 1.991,-7.205C2.864,-7.205 3.643,-7.007 4.327,-6.61C5.01,-6.214 5.544,-5.659 5.93,-4.947C6.314,-4.235 6.507,-3.419 6.507,-2.5C6.507,-2.373 6.495,-2.207 6.472,-1.999" style="fill:rgb(195,70,0);fill-rule:nonzero;"/>
    </g>
    <g transform="matrix(1,0,0,1,193.854,59.9338)">
        <path d="M0,-5.085C-0.534,-4.602 -0.847,-3.97 -0.939,-3.189L4.921,-3.189C4.829,-3.959 4.516,-4.588 3.982,-5.076C3.447,-5.565 2.784,-5.809 1.991,-5.809C1.198,-5.809 0.534,-5.568 0,-5.085M6.472,-1.999L-0.939,-1.999C-0.836,-1.195 -0.483,-0.549 0.121,-0.061C0.724,0.428 1.474,0.672 2.37,0.672C3.461,0.672 4.341,0.305 5.007,-0.431L5.921,0.638C5.507,1.121 4.993,1.488 4.378,1.741C3.763,1.994 3.077,2.12 2.319,2.12C1.353,2.12 0.497,1.922 -0.25,1.525C-0.997,1.129 -1.574,0.575 -1.982,-0.138C-2.39,-0.85 -2.594,-1.655 -2.594,-2.551C-2.594,-3.436 -2.396,-4.235 -1.999,-4.947C-1.603,-5.659 -1.057,-6.214 -0.362,-6.61C0.333,-7.007 1.117,-7.205 1.991,-7.205C2.864,-7.205 3.643,-7.007 4.327,-6.61C5.01,-6.214 5.544,-5.659 5.93,-4.947C6.314,-4.235 6.507,-3.419 6.507,-2.5C6.507,-2.373 6.495,-2.207 6.472,-1.999" style="fill:rgb(195,70,0);fill-rule:nonzero;"/>
    </g>
    <g transform="matrix(1,0,0,1,206.204,61.5373)">
        <path d="M0,-8.395C0.563,-8.67 1.247,-8.808 2.051,-8.808L2.051,-7.205C1.959,-7.217 1.833,-7.223 1.672,-7.223C0.776,-7.223 0.072,-6.956 -0.44,-6.421C-0.951,-5.887 -1.207,-5.126 -1.207,-4.137L-1.207,0.413L-2.861,0.413L-2.861,-8.722L-1.275,-8.722L-1.275,-7.188C-0.988,-7.717 -0.563,-8.119 0,-8.395" style="fill:rgb(195,70,0);fill-rule:nonzero;"/>
    </g>
    <g transform="matrix(1,0,0,1,-221.152,-25.3889)">
        <path d="M432.131,78.204L433.786,78.204L433.786,87.339L432.131,87.339L432.131,78.204ZM432.157,76.135C431.944,75.929 431.838,75.676 431.838,75.377C431.838,75.078 431.944,74.823 432.157,74.61C432.369,74.397 432.637,74.291 432.958,74.291C433.28,74.291 433.547,74.392 433.76,74.593C433.972,74.794 434.079,75.044 434.079,75.343C434.079,75.653 433.972,75.915 433.76,76.127C433.547,76.34 433.28,76.446 432.958,76.446C432.637,76.446 432.369,76.342 432.157,76.135" style="fill:rgb(195,70,0);fill-rule:nonzero;"/>
    </g>
    <g transform="matrix(1,0,0,1,224.121,60.9424)">
        <path d="M0,-7.205C0.683,-6.533 1.026,-5.548 1.026,-4.249L1.026,1.008L-0.629,1.008L-0.629,-4.06C-0.629,-4.944 -0.842,-5.611 -1.267,-6.059C-1.692,-6.507 -2.301,-6.731 -3.094,-6.731C-3.99,-6.731 -4.697,-6.47 -5.214,-5.947C-5.731,-5.424 -5.99,-4.674 -5.99,-3.697L-5.99,1.008L-7.645,1.008L-7.645,-8.127L-6.059,-8.127L-6.059,-6.748C-5.725,-7.22 -5.274,-7.581 -4.706,-7.834C-4.137,-8.087 -3.491,-8.213 -2.767,-8.213C-1.606,-8.213 -0.684,-7.877 0,-7.205" style="fill:rgb(195,70,0);fill-rule:nonzero;"/>
    </g>
    <g transform="matrix(1,0,0,1,234.549,58.3833)">
        <path d="M0,1.361C0.477,1.108 0.85,0.755 1.12,0.301C1.39,-0.153 1.525,-0.667 1.525,-1.242C1.525,-2.127 1.232,-2.842 0.646,-3.388C0.06,-3.933 -0.692,-4.206 -1.612,-4.206C-2.542,-4.206 -3.301,-3.933 -3.887,-3.388C-4.473,-2.842 -4.766,-2.127 -4.766,-1.242C-4.766,-0.667 -4.631,-0.153 -4.361,0.301C-4.091,0.755 -3.717,1.108 -3.241,1.361C-2.764,1.614 -2.221,1.74 -1.612,1.74C-1.015,1.74 -0.477,1.614 0,1.361M3.145,-5.568L3.145,2.326C3.145,3.923 2.749,5.104 1.956,5.868C1.164,6.632 -0.02,7.015 -1.595,7.015C-2.457,7.015 -3.278,6.897 -4.059,6.661C-4.841,6.426 -5.472,6.089 -5.955,5.653L-5.162,4.377C-4.737,4.745 -4.212,5.035 -3.585,5.247C-2.959,5.46 -2.313,5.567 -1.646,5.567C-0.578,5.567 0.212,5.314 0.724,4.808C1.235,4.302 1.491,3.533 1.491,2.498L1.491,1.774C1.1,2.246 0.621,2.599 0.052,2.835C-0.517,3.07 -1.135,3.188 -1.801,3.188C-2.675,3.188 -3.465,3.001 -4.171,2.628C-4.878,2.255 -5.432,1.731 -5.835,1.059C-6.237,0.387 -6.438,-0.38 -6.438,-1.242C-6.438,-2.104 -6.237,-2.871 -5.835,-3.543C-5.432,-4.215 -4.878,-4.735 -4.171,-5.103C-3.465,-5.47 -2.675,-5.654 -1.801,-5.654C-1.112,-5.654 -0.471,-5.528 0.12,-5.275C0.712,-5.022 1.198,-4.649 1.577,-4.155L1.577,-5.568L3.145,-5.568Z" style="fill:rgb(195,70,0);fill-rule:nonzero;"/>
    </g>
    <g transform="matrix(-0.733858,0.679302,0.679302,0.733858,14.8513,55.3536)">
        <path d="M-15.736,28.286L-5.343,28.286C-12.337,17.705 -14.467,4.912 -11.865,-7.011C-15.508,-5.785 -19.256,-5.013 -23.032,-4.724C-24.808,6.566 -22.41,18.404 -15.736,28.286" style="fill:rgb(118,24,23);fill-rule:nonzero;"/>
    </g>
    <g transform="matrix(-0.655441,-0.755247,-0.755247,0.655441,15.0628,15.2429)">
        <path d="M-13.844,-28.437C-21.556,-19.341 -25.23,-7.835 -24.696,3.581C-20.973,4.28 -17.332,5.456 -13.844,7.072C-15.131,-5.064 -11.619,-17.549 -3.513,-27.304L-13.844,-28.437Z" style="fill:rgb(195,70,0);fill-rule:nonzero;"/>
    </g>
    <g transform="matrix(0,-1,-1,0,17.7927,25.4866)">
        <path d="M-10.755,-10.755C-13.109,-7.781 -15.092,-4.51 -16.665,-1.004C-14.162,2.578 -12.166,6.529 -10.755,10.755C-9.343,6.529 -7.348,2.578 -4.845,-1.004C-6.418,-4.51 -8.401,-7.781 -10.755,-10.755" style="fill:rgb(74,15,14);fill-rule:nonzero;"/>
    </g>
    <g transform="matrix(-0.569643,-0.821892,-0.821892,0.569643,-4.28971,8.1934)">
        <path d="M-17.349,-39.415C-26.463,-30.596 -31.315,-18.566 -31.346,-6.364C-25.963,-3.1 -21.161,1.305 -17.349,6.805C-25.621,-5.13 -22.643,-21.561 -10.708,-29.833L-17.349,-39.415Z" style="fill:rgb(255,186,0);fill-rule:nonzero;"/>
    </g>
    <g transform="matrix(-0.216243,-0.97634,-0.97634,0.216243,6.43452,22.3157)">
        <path d="M-10.499,-10.336C-12.168,-6.298 -13.261,-2.009 -13.726,2.422C-12.486,4.47 -11.409,6.643 -10.499,8.916L-2.527,7.15C-3.974,0.617 -6.751,-5.278 -10.499,-10.336" style="fill:rgb(118,24,23);fill-rule:nonzero;"/>
    </g>
    <g transform="matrix(1,0,0,1,7.038,36.2411)">
        <path d="M0,0C-2.267,0.768 -4.622,1.35 -7.038,1.747L-7.038,-1.747C-4.622,-1.351 -2.267,-0.768 0,0" style="fill:rgb(74,15,14);fill-rule:nonzero;"/>
    </g>
    <g transform="matrix(0.216243,-0.97634,-0.97634,-0.216243,12.3619,32.2278)">
        <path d="M-8.297,-8.428C-12.045,-3.37 -14.822,2.525 -16.269,9.058L-8.297,10.824C-7.387,8.551 -6.31,6.378 -5.07,4.33C-5.535,-0.101 -6.628,-4.39 -8.297,-8.428" style="fill:rgb(195,70,0);fill-rule:nonzero;"/>
    </g>
    <g transform="matrix(-1,0,0,1,0.0005,42.1512)">
        <path d="M-37.988,30.331L-26.329,30.331C-26.329,15.81 -14.521,4.002 0,4.002C-6.691,4.002 -13.047,2.565 -18.796,0C-28.807,6.976 -35.931,17.817 -37.988,30.331" style="fill:rgb(255,186,0);fill-rule:nonzero;"/>
    </g>
</svg>
