<svg id="visual" viewBox="0 0 960 540" width="960" height="540" xmlns="http://www.w3.org/2000/svg"
    xmlns:xlink="http://www.w3.org/1999/xlink" version="1.1">
    <path
        d="M0 337L192 372L384 376L576 377L768 317L960 356L960 541L768 541L576 541L384 541L192 541L0 541Z"
        fill="#ffffff"></path>
    <path
        d="M0 414L192 416L384 397L576 388L768 421L960 407L960 541L768 541L576 541L384 541L192 541L0 541Z"
        fill="#aeb1b7"></path>
    <path
        d="M0 417L192 415L384 417L576 456L768 442L960 461L960 541L768 541L576 541L384 541L192 541L0 541Z"
        fill="#626974"></path>
    <path
        d="M0 484L192 500L384 500L576 494L768 476L960 466L960 541L768 541L576 541L384 541L192 541L0 541Z"
        fill="#1f2937"></path>
</svg>