<svg id="visual" viewBox="0 0 960 540" width="960" height="540" xmlns="http://www.w3.org/2000/svg"
    xmlns:xlink="http://www.w3.org/1999/xlink" version="1.1">
    <rect x="0" y="0" width="960" height="540" fill="#1f2937"></rect>
    <path
        d="M0 379L22.8 382.7C45.7 386.3 91.3 393.7 137 386C182.7 378.3 228.3 355.7 274 349C319.7 342.3 365.3 351.7 411.2 357.5C457 363.3 503 365.7 548.8 370.7C594.7 375.7 640.3 383.3 686 381.8C731.7 380.3 777.3 369.7 823 363.8C868.7 358 914.3 357 937.2 356.5L960 356L960 541L937.2 541C914.3 541 868.7 541 823 541C777.3 541 731.7 541 686 541C640.3 541 594.7 541 548.8 541C503 541 457 541 411.2 541C365.3 541 319.7 541 274 541C228.3 541 182.7 541 137 541C91.3 541 45.7 541 22.8 541L0 541Z"
        fill="#ffffff"></path>
    <path
        d="M0 367L22.8 374.8C45.7 382.7 91.3 398.3 137 404.5C182.7 410.7 228.3 407.3 274 399.7C319.7 392 365.3 380 411.2 379C457 378 503 388 548.8 398.2C594.7 408.3 640.3 418.7 686 419.7C731.7 420.7 777.3 412.3 823 401.8C868.7 391.3 914.3 378.7 937.2 372.3L960 366L960 541L937.2 541C914.3 541 868.7 541 823 541C777.3 541 731.7 541 686 541C640.3 541 594.7 541 548.8 541C503 541 457 541 411.2 541C365.3 541 319.7 541 274 541C228.3 541 182.7 541 137 541C91.3 541 45.7 541 22.8 541L0 541Z"
        fill="#e6e7ea"></path>
    <path
        d="M0 457L22.8 447.7C45.7 438.3 91.3 419.7 137 411.5C182.7 403.3 228.3 405.7 274 415.3C319.7 425 365.3 442 411.2 440.5C457 439 503 419 548.8 418.8C594.7 418.7 640.3 438.3 686 441.7C731.7 445 777.3 432 823 427.7C868.7 423.3 914.3 427.7 937.2 429.8L960 432L960 541L937.2 541C914.3 541 868.7 541 823 541C777.3 541 731.7 541 686 541C640.3 541 594.7 541 548.8 541C503 541 457 541 411.2 541C365.3 541 319.7 541 274 541C228.3 541 182.7 541 137 541C91.3 541 45.7 541 22.8 541L0 541Z"
        fill="#cdd0d6"></path>
    <path
        d="M0 442L22.8 446.7C45.7 451.3 91.3 460.7 137 461.7C182.7 462.7 228.3 455.3 274 450.3C319.7 445.3 365.3 442.7 411.2 441.5C457 440.3 503 440.7 548.8 441.5C594.7 442.3 640.3 443.7 686 446C731.7 448.3 777.3 451.7 823 456.8C868.7 462 914.3 469 937.2 472.5L960 476L960 541L937.2 541C914.3 541 868.7 541 823 541C777.3 541 731.7 541 686 541C640.3 541 594.7 541 548.8 541C503 541 457 541 411.2 541C365.3 541 319.7 541 274 541C228.3 541 182.7 541 137 541C91.3 541 45.7 541 22.8 541L0 541Z"
        fill="#b4b9c2"></path>
    <path
        d="M0 476L22.8 475.5C45.7 475 91.3 474 137 476.8C182.7 479.7 228.3 486.3 274 492.3C319.7 498.3 365.3 503.7 411.2 506.2C457 508.7 503 508.3 548.8 506.2C594.7 504 640.3 500 686 497C731.7 494 777.3 492 823 495.2C868.7 498.3 914.3 506.7 937.2 510.8L960 515L960 541L937.2 541C914.3 541 868.7 541 823 541C777.3 541 731.7 541 686 541C640.3 541 594.7 541 548.8 541C503 541 457 541 411.2 541C365.3 541 319.7 541 274 541C228.3 541 182.7 541 137 541C91.3 541 45.7 541 22.8 541L0 541Z"
        fill="#9ca3af"></path>
</svg>