<svg id="visual" viewBox="0 0 960 540" width="960" height="540" xmlns="http://www.w3.org/2000/svg"
    xmlns:xlink="http://www.w3.org/1999/xlink" version="1.1">
    <rect x="0" y="0" width="960" height="540" fill="#1f2937"></rect>
    <path
        d="M0 159L22.8 155.3C45.7 151.7 91.3 144.3 137 152C182.7 159.7 228.3 182.3 274 189C319.7 195.7 365.3 186.3 411.2 180.5C457 174.7 503 172.3 548.8 167.3C594.7 162.3 640.3 154.7 686 156.2C731.7 157.7 777.3 168.3 823 174.2C868.7 180 914.3 181 937.2 181.5L960 182L960 0L937.2 0C914.3 0 868.7 0 823 0C777.3 0 731.7 0 686 0C640.3 0 594.7 0 548.8 0C503 0 457 0 411.2 0C365.3 0 319.7 0 274 0C228.3 0 182.7 0 137 0C91.3 0 45.7 0 22.8 0L0 0Z"
        fill="#ffffff"></path>
    <path
        d="M0 171L22.8 163.2C45.7 155.3 91.3 139.7 137 133.5C182.7 127.3 228.3 130.7 274 138.3C319.7 146 365.3 158 411.2 159C457 160 503 150 548.8 139.8C594.7 129.7 640.3 119.3 686 118.3C731.7 117.3 777.3 125.7 823 136.2C868.7 146.7 914.3 159.3 937.2 165.7L960 172L960 0L937.2 0C914.3 0 868.7 0 823 0C777.3 0 731.7 0 686 0C640.3 0 594.7 0 548.8 0C503 0 457 0 411.2 0C365.3 0 319.7 0 274 0C228.3 0 182.7 0 137 0C91.3 0 45.7 0 22.8 0L0 0Z"
        fill="#c1c4c9"></path>
    <path
        d="M0 81L22.8 90.3C45.7 99.7 91.3 118.3 137 126.5C182.7 134.7 228.3 132.3 274 122.7C319.7 113 365.3 96 411.2 97.5C457 99 503 119 548.8 119.2C594.7 119.3 640.3 99.7 686 96.3C731.7 93 777.3 106 823 110.3C868.7 114.7 914.3 110.3 937.2 108.2L960 106L960 0L937.2 0C914.3 0 868.7 0 823 0C777.3 0 731.7 0 686 0C640.3 0 594.7 0 548.8 0C503 0 457 0 411.2 0C365.3 0 319.7 0 274 0C228.3 0 182.7 0 137 0C91.3 0 45.7 0 22.8 0L0 0Z"
        fill="#878c95"></path>
    <path
        d="M0 96L22.8 91.3C45.7 86.7 91.3 77.3 137 76.3C182.7 75.3 228.3 82.7 274 87.7C319.7 92.7 365.3 95.3 411.2 96.5C457 97.7 503 97.3 548.8 96.5C594.7 95.7 640.3 94.3 686 92C731.7 89.7 777.3 86.3 823 81.2C868.7 76 914.3 69 937.2 65.5L960 62L960 0L937.2 0C914.3 0 868.7 0 823 0C777.3 0 731.7 0 686 0C640.3 0 594.7 0 548.8 0C503 0 457 0 411.2 0C365.3 0 319.7 0 274 0C228.3 0 182.7 0 137 0C91.3 0 45.7 0 22.8 0L0 0Z"
        fill="#515864"></path>
    <path
        d="M0 62L22.8 62.5C45.7 63 91.3 64 137 61.2C182.7 58.3 228.3 51.7 274 45.7C319.7 39.7 365.3 34.3 411.2 31.8C457 29.3 503 29.7 548.8 31.8C594.7 34 640.3 38 686 41C731.7 44 777.3 46 823 42.8C868.7 39.7 914.3 31.3 937.2 27.2L960 23L960 0L937.2 0C914.3 0 868.7 0 823 0C777.3 0 731.7 0 686 0C640.3 0 594.7 0 548.8 0C503 0 457 0 411.2 0C365.3 0 319.7 0 274 0C228.3 0 182.7 0 137 0C91.3 0 45.7 0 22.8 0L0 0Z"
        fill="#1f2937"></path>
</svg>