<svg id="b3532f5a-3972-44ee-b9ea-5285c110410e" data-name="Logo" xmlns="http://www.w3.org/2000/svg" viewBox="0 0 431.69771 245.7928"><defs><style>.e7760323-820a-43fd-99c7-d5fc23c623e9{fill:#f15a24;}.\36 c0794f8-aba5-46ad-81c2-d9a2b2bfdd24{fill:#fbb03b;}.aa4d121d-1566-4477-b5cc-ba93edb9b0a6{fill:#f7931e;}.\37 e152508-d1c4-4fc0-bf38-f8d81599abc7{fill:#c1272d;}.c0e6e6c7-1f3e-4f25-8339-cb24b81841f1{fill:none;}.\30 e10251f-6a53-4554-bb49-18fff9e38832{fill:#f16f24;}.\30 5483ccb-47c4-48c5-b4f9-215e454202c1{fill:#f18b24;}.c0e2cc53-f709-47bb-ac5c-21f3dc23796f{fill:#662d91;}</style></defs><title>logo</title><path class="e7760323-820a-43fd-99c7-d5fc23c623e9" d="M106.63672,264.64258H111.419v15.68555H85.30908L70.96289,250.6792l-4.39941,3.63428v10.3291h4.59033v15.68555H35.00146V264.64258h4.78223V221.60449H35.00146V205.91943H71.15381v15.68506H66.56348V234.229L81.3877,221.60449H75.3623V205.91943h35.57813v15.68506h-4.78174L90.18652,234.80322Z" transform="translate(-35.00146 -129.44578)"/><path class="e7760323-820a-43fd-99c7-d5fc23c623e9" d="M120.93457,272.48535q-9.51781-9.18163-9.5166-29.36181,0-20.17822,9.5166-29.36182,9.51489-9.18091,27.01856-9.18115,17.50194,0,27.01855,9.18115,9.51563,9.18164,9.51611,29.36182,0,20.18042-9.51611,29.36181-9.51783,9.18165-27.01855,9.18164Q130.45044,281.667,120.93457,272.48535Zm31.896-9.56445q1.62524-1.72119,1.626-5.35547v-28.8833q0-3.63354-1.626-5.356a7.77032,7.77032,0,0,0-9.75537,0q-1.62745,1.72119-1.626,5.356v28.8833q0,3.7295,1.626,5.40332a6.50675,6.50675,0,0,0,4.87793,1.67383A6.40248,6.40248,0,0,0,152.83057,262.9209Z" transform="translate(-35.00146 -129.44578)"/><path class="e7760323-820a-43fd-99c7-d5fc23c623e9" d="M196.96826,272.48535q-9.80419-9.18163-9.80322-29.36181,0-38.54151,37.4917-38.543a61.96463,61.96463,0,0,1,16.88086,2.1997q7.793,2.20093,11.61865,4.87744v23.91065H230.20361v-6.88623q0-3.63354-1.625-5.356a7.77169,7.77169,0,0,0-9.75634,0q-1.62745,1.72119-1.626,5.356v28.8833q0,3.63575,1.626,5.35547a7.77169,7.77169,0,0,0,9.75634,0q1.623-1.72119,1.625-5.35547v-7.74658h22.95264v24.771q-3.92212,2.67774-11.61865,4.87793a60.57806,60.57806,0,0,1-16.68946,2.19922Q206.77125,281.667,196.96826,272.48535Z" transform="translate(-35.00146 -129.44578)"/><path class="e7760323-820a-43fd-99c7-d5fc23c623e9" d="M333.30273,221.60449h-4.78222v43.03809h4.78222v15.68555H297.15039V264.64258h4.59082V248.8623H288.35156v15.78028h4.59082v15.68555H256.79V264.64258h4.78223V221.60449H256.79V205.91943h36.15234v15.68506h-4.59082v14.5376h13.38965v-14.5376h-4.59082V205.91943h36.15234Z" transform="translate(-35.00146 -129.44578)"/><path class="e7760323-820a-43fd-99c7-d5fc23c623e9" d="M339.04,280.32813V264.64258h14.9209v15.68555Z" transform="translate(-35.00146 -129.44578)"/><path class="e7760323-820a-43fd-99c7-d5fc23c623e9" d="M360.46387,280.32813V264.64258h4.78222V221.60449h-4.78222V205.91943h36.34375v15.68506h-4.78223v43.03809h4.78223v15.68555Z" transform="translate(-35.00146 -129.44578)"/><path class="e7760323-820a-43fd-99c7-d5fc23c623e9" d="M400.63281,280.32813V264.64258H405.415V221.60449h-4.78223V205.91943h64.55762v28.88379H443.7666V221.60449H432.19434v15.11133h8.416v10.90283h-8.416v17.02393H443.7666V249.53174h21.42383v30.79639Z" transform="translate(-35.00146 -129.44578)"/><path class="6c0794f8-aba5-46ad-81c2-d9a2b2bfdd24" d="M162.02516,167.41142q-.80459-1.57908-1.60914-3.15811.51925-.26461,1.03968-.52589-2.18184-4.3453-4.36374-8.69057-.546.27416-1.09083.55176-.80457-1.57908-1.60915-3.15811,7.48046-3.8115,15.176-6.99092,1.24662,3.01567,2.49324,6.0314-2.47266,1.02246-4.92467,2.11232l-1.211-2.725q-1.34361.59728-2.68079,1.21455.71546,1.55015,1.43088,3.1003.95652-.44159,1.91653-.87277.50453,1.12362,1.00914,2.2472-.94834.426-1.89337.86223.806,1.74635,1.612,3.49265,1.27438-.58833,2.555-1.1576-.69335-1.56015-1.38673-3.1203,2.41182-1.07217,4.84447-2.07791l2.6585,6.4312Q168.915,163.90381,162.02516,167.41142Z" transform="translate(-35.00146 -129.44578)"/><path class="6c0794f8-aba5-46ad-81c2-d9a2b2bfdd24" d="M183.70464,140.17816q3.8127-1.26555,7.66072-2.38193.4938,1.70206.9877,3.4041-.57658.16729-1.15251.338,1.88567,6.361,3.77134,12.722-3.02931.89808-6.03544,1.897-4.67075-3.58326-9.62688-6.94671l2.15509,5.81576q.518-.192,1.03673-.381l1.213,3.33044q-3.482,1.26853-6.92592,2.67439-.66971-1.64081-1.33951-3.2816.53451-.2182,1.06992-.43319-1.81125-4.51239-3.62245-9.02482-.56181.22557-1.12256.45452-.66973-1.64081-1.33951-3.2816,4.11807-1.68144,8.28795-3.182,4.50431,2.98386,8.78264,6.14958-.79308-2.43489-1.58614-4.86984-.54927.17892-1.09771.361Z" transform="translate(-35.00146 -129.44578)"/><path class="6c0794f8-aba5-46ad-81c2-d9a2b2bfdd24" d="M212.27856,144.47873q-.56421.109-1.12793.2213.42229,2.11952.84464,4.239a12.12029,12.12029,0,0,1-2.6293,1.52629,20.78355,20.78355,0,0,1-3.89275,1.31058,10.03849,10.03849,0,0,1-6.91936-.43373c-1.91676-.94666-3.30613-2.82556-4.12495-5.67978-.83818-2.92053-.64543-5.28189.63393-7.0663,1.27607-1.78095,3.483-3.08273,6.58566-3.81531a18.85163,18.85163,0,0,1,4.32333-.52934,11.56354,11.56354,0,0,1,3.16435.33864q.50465,2.53278,1.00933,5.06552-2.89131.576-5.76921,1.236-.11355-.49494-.22711-.98991a1.746,1.746,0,0,0-.69947-1.18073,2.381,2.381,0,0,0-2.58049.61485,1.74114,1.74114,0,0,0-.09266,1.36947q.75732,3.06309,1.51461,6.12617a1.801,1.801,0,0,0,.70281,1.17368,2.2348,2.2348,0,0,0,2.46919-.58832,1.80547,1.80547,0,0,0,.09712-1.36429l-.03386-.14754q-.60594.139-1.21118.2818-.36978-1.56711-.73962-3.13417,4.03191-.95135,8.09186-1.73556Q211.973,142.89786,212.27856,144.47873Z" transform="translate(-35.00146 -129.44578)"/><path class="6c0794f8-aba5-46ad-81c2-d9a2b2bfdd24" d="M213.91861,149.66568q-.33065-1.74113-.66136-3.48222.5592-.10611,1.11889-.20908l-1.75946-9.56422q-.58727.108-1.174.21939-.33065-1.74113-.66136-3.48223,4.5358-.86117,9.09824-1.522.25419,1.75391.50844,3.5078-.59034.08556-1.18026.17445.72513,4.80793,1.45035,9.61594.56228-.08477,1.12489-.16628.25425,1.75392.50844,3.50782Q218.09378,148.8732,213.91861,149.66568Z" transform="translate(-35.00146 -129.44578)"/><path class="6c0794f8-aba5-46ad-81c2-d9a2b2bfdd24" d="M234.71451,130.00958q3.96053-.29009,7.928-.43091.06294,1.77111.12586,3.54219-.59475.02111-1.18944.04566.27363,6.62889.54727,13.25777-3.12645.129-6.2489.3587-3.61346-4.62056-7.54642-9.102.33163,3.08329.66336,6.16661.5417-.05823,1.08362-.11348.17985,1.76306.35967,3.52615-3.63727.37081-7.26244.87885-.24616-1.75509-.49229-3.5101.5624-.07886,1.12515-.15444-.6477-4.819-1.29532-9.638-.59043.07934-1.18053.162-.24616-1.75508-.49229-3.51011,4.33462-.60764,8.68677-1.0345,3.59415,4.00123,6.93386,8.12-.17307-2.55495-.34622-5.10988-.57039.03861-1.14062.08038Q234.84405,131.777,234.71451,130.00958Z" transform="translate(-35.00146 -129.44578)"/><path class="6c0794f8-aba5-46ad-81c2-d9a2b2bfdd24" d="M244.08542,146.35338q-.05522-1.77136-.1104-3.54273.56645-.01763,1.13292-.032-.12356-4.86072-.24713-9.72147-.59436.0151-1.18868.0336-.05517-1.77136-.11039-3.54273,8.16314-.25419,16.32892.1236-.151,3.25971-.30207,6.51938-2.62418-.12149-5.25017-.17554.0307-1.49068.06142-2.98129-1.43929-.02962-2.87883-.03928-.01144,1.70726-.02292,3.41448,1.02988.00692,2.05966.0242-.02069,1.23152-.04139,2.463-1.0174-.01709-2.03479-.02391-.01291,1.92332-.02581,3.8466,1.372.00918,2.74381.03741.03517-1.70691.07033-3.41381,2.583.05315,5.16464.17266-.16109,3.47579-.32208,6.95154Q251.60355,146.11948,244.08542,146.35338Z" transform="translate(-35.00146 -129.44578)"/><path class="6c0794f8-aba5-46ad-81c2-d9a2b2bfdd24" d="M259.958,146.50809q.08967-1.77.1795-3.53989.56612.02871,1.132.06062.274-4.85458.54816-9.70916-.59377-.03347-1.18772-.06359.08982-1.77.17951-3.53988,8.15844.41335,16.27954,1.45872-.41716,3.23641-.83432,6.47287-2.60967-.3362-5.22553-.60492.15249-1.48317.305-2.96632-1.43377-.14731-2.869-.27461-.15093,1.70058-.30194,3.40118,1.02681.09111,2.05279.19258-.12131,1.22571-.24264,2.45142-1.01358-.10026-2.028-.19026-.17005,1.91579-.34018,3.83161,1.36789.12138,2.73438.26177.17463-1.69833.34921-3.39667,2.573.26435,5.14041.59506-.44485,3.451-.88962,6.90194Q267.47173,146.88852,259.958,146.50809Z" transform="translate(-35.00146 -129.44578)"/><path class="6c0794f8-aba5-46ad-81c2-d9a2b2bfdd24" d="M276.24979,144.44749q.56268.075,1.12527.15326.67035-4.81592,1.34073-9.6318-.59006-.08216-1.18066-.1608.23423-1.75671.4685-3.51337,5.51559.73509,10.99735,1.76238a8.03535,8.03535,0,0,1,4.4599,2.05661,4.16949,4.16949,0,0,1,.81207,3.97667,4.824,4.824,0,0,1-1.15714,2.31418,3.364,3.364,0,0,1-2.06573,1.065l-.02115.21651a2.304,2.304,0,0,1,1.642,2.956l-.35523,1.62573q.52336.11433,1.04624.23152-.38773,1.72932-.77542,3.45862-3.46364-.77637-6.94785-1.42447.46458-2.49647.92923-4.99294a2.45763,2.45763,0,0,0-.02826-1.30188,1.32343,1.32343,0,0,0-.71429-.72349,6.38638,6.38638,0,0,0-1.5585-.42841q-.3007,1.74628-.60145,3.49259.74025.12739,1.47956.26045-.314,1.7442-.628,3.48839-4.35535-.78378-8.73563-1.36742Q276.01552,146.20416,276.24979,144.44749Zm9.71261-4.74029a1.20791,1.20791,0,0,0,1.59213-1.1158l.142-.76526a1.39683,1.39683,0,0,0-.149-1.09308,1.42862,1.42862,0,0,0-.962-.51463q-.63469-.11333-1.26984-.22266-.3007,1.74629-.60144,3.49259Q285.33861,139.59582,285.9624,139.7072Z" transform="translate(-35.00146 -129.44578)"/><path class="6c0794f8-aba5-46ad-81c2-d9a2b2bfdd24" d="M293.37323,151.13612q.39492-1.72767.78979-3.45536.55569.127,1.11075.2572,1.11076-4.7338,2.22153-9.46759-.5824-.13665-1.16537-.26987.39491-1.72767.78979-3.45537,4.50833,1.03028,8.97983,2.26087-.47031,1.7087-.94071,3.41736-.57861-.15931-1.15792-.31514-1.2633,4.69539-2.52668,9.39077.55212.14855,1.10358.30036-.47031,1.70866-.9407,3.41736Q297.52319,152.08423,293.37323,151.13612Z" transform="translate(-35.00146 -129.44578)"/><path class="6c0794f8-aba5-46ad-81c2-d9a2b2bfdd24" d="M320.47421,141.52182q3.79344,1.34258,7.54654,2.8344-.65456,1.64694-1.30917,3.29382-.56255-.22366-1.12622-.444-2.41447,6.17964-4.82895,12.35928-2.9631-1.15808-5.95419-2.21532-1.49464-5.69725-3.33146-11.39024-.93338,2.95734-1.86663,5.91467.52464.16562,1.04858.3342-.54278,1.687-1.08557,3.37414-3.51645-1.13151-7.06452-2.1257l.95655-3.413q.55046.15425,1.10016.31177,1.33927-4.67427,2.67852-9.3486-.57682-.16522-1.15435-.3271l.95654-3.413q4.24247,1.189,8.44485,2.55871,1.71891,5.11786,3.16312,10.24576.86765-2.40933,1.73538-4.81868-.54537-.19639-1.09152-.38974Q319.88307,143.19258,320.47421,141.52182Z" transform="translate(-35.00146 -129.44578)"/><path class="6c0794f8-aba5-46ad-81c2-d9a2b2bfdd24" d="M340.68793,162.59746q-.52441-.26718-1.04993-.53107-.96967,1.93132-1.93951,3.86267a12.61374,12.61374,0,0,1-3.06791-.43928,21.643,21.643,0,0,1-3.94305-1.38855,10.25153,10.25153,0,0,1-5.27673-4.62676c-.94736-1.93045-.89786-4.269.20724-7.02513,1.1308-2.82011,2.73767-4.56392,4.86014-5.18017,2.11682-.61567,4.68469-.27744,7.63153,1.07232a19.50461,19.50461,0,0,1,3.80783,2.27193,12.00306,12.00306,0,0,1,2.34622,2.24048q-1.15887,2.30793-2.31768,4.61584-2.69414-1.35278-5.41739-2.62143l.42886-.92065a1.72672,1.72672,0,0,0,.16574-1.3649,2.45035,2.45035,0,0,0-2.45257-1.1172,1.72824,1.72824,0,0,0-.91926,1.02163q-1.28305,2.88264-2.56622,5.76522a1.716,1.716,0,1,0,3.10767,1.41565l.0639-.13723q-.57335-.26715-1.14807-.5305.67058-1.46381,1.34122-2.92763,3.82832,1.75422,7.59991,3.67553Q341.41892,161.16286,340.68793,162.59746Z" transform="translate(-35.00146 -129.44578)"/><path class="aa4d121d-1566-4477-b5cc-ba93edb9b0a6" d="M140.74022,336.22726q3.34349,1.41784,6.7142,2.74509-.64911,1.64877-1.29825,3.29764-.42654-.168-.85267-.33737-4.03821,5.53449-8.219,10.989-3.32277-1.36761-6.61992-2.819.8769-4.71428,1.81929-9.40826l-.21322-.09586q-2.93793,3.79669-5.93941,7.5549-3.279-1.50667-6.52995-3.0971,1.187-6.80548,2.53663-13.55808-.41357-.209-.82663-.41946.80445-1.57889,1.60892-3.15769,3.77171,1.92174,7.58606,3.72244-.75644,1.60245-1.51286,3.20481-.39666-.18723-.79294-.37586-.77733,2.68162-1.53835,5.36927l.21306.10046q2.94032-3.61944,5.81993-7.27673,2.9777,1.37466,5.97936,2.676-.88367,4.55136-1.70577,9.12155l.2159.09168q1.49631-2.35836,2.977-4.72486-.40248-.16914-.80459-.33972Q140.0486,337.85865,140.74022,336.22726Z" transform="translate(-35.00146 -129.44578)"/><path class="aa4d121d-1566-4477-b5cc-ba93edb9b0a6" d="M142.00987,354.89755q.64484-1.65051,1.28971-3.301.552.2157,1.10472.42917l3.50268-9.073q-.53436-.2064-1.06808-.41492.6448-1.65055,1.2897-3.301,7.11494,2.78064,14.33939,5.15829-1.02031,3.09962-2.04068,6.19916-2.45241-.80741-4.89348-1.66025.49175-1.40781.9835-2.81564-1.30473-.4559-2.60611-.92481-.57876,1.60649-1.15757,3.21293.95793.34519,1.91774.68338-.40938,1.16188-.8187,2.32391-.968-.34118-1.9342-.68927-.65194,1.80949-1.3039,3.619,1.346.485,2.69556.95654.5631-1.612,1.12616-3.22406,2.46941.86274,4.95036,1.67957-1.088,3.305-2.176,6.6101Q149.55523,357.84518,142.00987,354.89755Z" transform="translate(-35.00146 -129.44578)"/><path class="aa4d121d-1566-4477-b5cc-ba93edb9b0a6" d="M159.17091,357.27856q.56074.18265,1.122.36313,1.48777-4.62972,2.97554-9.25934-.54269-.17449-1.08483-.35107.54891-1.68484,1.09783-3.36966,4.91448,1.60135,9.87231,3.01642a7.75615,7.75615,0,0,1,3.933,2.23361,3.642,3.642,0,0,1,.72226,3.45654,3.51772,3.51772,0,0,1-1.16707,1.91507,4.25214,4.25214,0,0,1-1.79657.88367,6.03853,6.03853,0,0,1-1.77168.13165l-.05759.208a6.864,6.864,0,0,1,2.60689,1.71524,3.1978,3.1978,0,0,1,.53627,3.181,3.506,3.506,0,0,1-2.64735,2.73151,9.62526,9.62526,0,0,1-4.97351-.28845q-5.25474-1.50009-10.46538-3.19767Q158.622,358.96338,159.17091,357.27856Zm10.37735-3.26306a1.35535,1.35535,0,0,0,1.05507-.04266,1.43373,1.43373,0,0,0,.61-.916l.2144-.74719a1.44776,1.44776,0,0,0-.02822-1.09945,1.34163,1.34163,0,0,0-.85767-.5976q-.5897-.17221-1.179-.347-.5041,1.69921-1.00833,3.39852Q168.95112,353.84118,169.54826,354.0155Zm-1.57409,5.97916a1.398,1.398,0,0,0,1.07573-.03726,1.418,1.418,0,0,0,.61641-.91428l.26155-.91351a1.43119,1.43119,0,0,0-.03556-1.10138,1.39,1.39,0,0,0-.87811-.60294q-.68051-.19821-1.3602-.4-.52876,1.78207-1.05749,3.56424Q167.28493,359.79387,167.97417,359.99466Z" transform="translate(-35.00146 -129.44578)"/><path class="aa4d121d-1566-4477-b5cc-ba93edb9b0a6" d="M183.51736,364.0647q.5711.13293,1.1427.26355,1.08117-4.73007,2.1623-9.46024-.55264-.12626-1.10488-.25482.40421-1.73625.80837-3.47263,4.42784,1.03053,8.88014,1.91532a8.85093,8.85093,0,0,1,5.48683,3.04211c1.22338,1.55445,1.60546,3.78888,1.113,6.71616-.49239,2.92688-1.60048,4.91614-3.35233,5.94583a9.08307,9.08307,0,0,1-6.52592.7868q-4.71914-.93786-9.41365-2.03039Q183.1156,365.79052,183.51736,364.0647Zm8.88764,1.92364a1.39488,1.39488,0,0,0,1.868-1.26175q.62352-3.20305,1.247-6.40619a1.39354,1.39354,0,0,0-1.20487-1.86834q-.64379-.129-1.2872-.26087-.97716,4.76367-1.9543,9.52732Q191.73908,365.855,192.405,365.98834Z" transform="translate(-35.00146 -129.44578)"/><path class="aa4d121d-1566-4477-b5cc-ba93edb9b0a6" d="M201.4,371.23694l.58028-3.49616q.57677.09573,1.15384.18909.77706-4.80043,1.55417-9.60071-.55793-.09031-1.11556-.18277.29013-1.748.58028-3.49615,7.43392,1.23334,14.9133,2.06366-.36045,3.24326-.72086,6.48648-2.539-.282-5.07385-.60938.19111-1.47889.38225-2.95782-1.35486-.175-2.70847-.3631-.23517,1.69129-.47032,3.38251.99639.13851,1.99349.2699-.16109,1.22134-.32222,2.44271-1.00566-.13251-2.01061-.27221-.26486,1.905-.52977,3.81,1.4.19453,2.80139.37557.21886-1.6934.4377-3.3869,2.56427.3312,5.13281.61646-.38433,3.45817-.76863,6.91644Q209.28348,372.54427,201.4,371.23694Z" transform="translate(-35.00146 -129.44578)"/><path class="aa4d121d-1566-4477-b5cc-ba93edb9b0a6" d="M229.22607,357.65524q3.70956.27554,7.424.45258-.08442,1.76994-.16878,3.53992-.45081-.02148-.90155-.04441-2.35179,6.52383-4.89089,13.008-3.81617-.24848-7.62674-.59537-1.50327-6.79906-2.81611-13.60968-.449-.04739-.89795-.09613.19151-1.76162.383-3.52319,4.25387.4621,8.51753.79391-.1376,1.76666-.27516,3.53327-.58427-.04547-1.16844-.09336.48015,3.67164,1.00023,7.34214l.22929.01745q1.06959-3.54963,2.09975-7.10635-.58555-.04112-1.171-.0846Q229.09471,359.42232,229.22607,357.65524Z" transform="translate(-35.00146 -129.44578)"/><path class="aa4d121d-1566-4477-b5cc-ba93edb9b0a6" d="M236.60472,374.93723q.07991-1.77023.15976-3.54035.58209.02628,1.16432.0502.19986-4.8587.39975-9.71737-.56286-.02313-1.12568-.04853.07985-1.77012.15976-3.54034,7.50558.33843,15.01969.27395.028,3.26308.05607,6.52613-2.55065.02188-5.1014-.00162.01379-1.49116.0275-2.98227-1.36377-.01254-2.72742-.03827-.03216,1.70728-.06435,3.41443,1.00387.0189,2.00783.03079-.01459,1.23184-.02919,2.46372-1.01262-.012-2.02507-.03107-.03626,1.92293-.07248,3.846,1.41042.02646,2.821.03955l.03149-3.41492q2.58033.02385,5.16068.00165.02991,3.47937.05978,6.95871Q244.56424,375.296,236.60472,374.93723Z" transform="translate(-35.00146 -129.44578)"/><path class="aa4d121d-1566-4477-b5cc-ba93edb9b0a6" d="M253.42343,375.2186q-.02058-1.77187-.04115-3.5437.58255-.00673,1.165-.01584-.07582-4.86219-.15158-9.7244-.5632.0087-1.12642.01529-.0206-1.77186-.04115-3.5437,4.69578-.05444,9.38885-.26642.08007,1.77018.16,3.54035-1.03611.04672-2.07236.086.18411,4.85936.3681,9.71863,1.04874-.03969,2.09714-.08688-.04471-.99316-.08948-1.98627,2.30224-.10364,4.60309-.24371.16824,2.76105.33643,5.522Q260.72786,375.13385,253.42343,375.2186Z" transform="translate(-35.00146 -129.44578)"/><path class="aa4d121d-1566-4477-b5cc-ba93edb9b0a6" d="M270.898,372.72379c-1.65237-1.26981-2.55783-3.431-2.748-6.46528-.19-3.03372.42309-5.28591,1.80676-6.76986a11.01011,11.01011,0,0,1,12.61169-1.18167c1.6366,1.201,2.65924,3.29965,3.03629,6.316.3772,3.01712-.11164,5.309-1.50092,6.86346-1.38669,1.55426-3.5314,2.48938-6.40439,2.75922C274.82745,374.51422,272.5481,373.99323,270.898,372.72379Zm7.58966-2.80927a1.6258,1.6258,0,0,0,.27466-1.24289q-.32212-3.24729-.64435-6.49448a1.66346,1.66346,0,0,0-.50152-1.16641,1.90727,1.90727,0,0,0-2.29422.21494,1.66473,1.66473,0,0,0-.27594,1.23926q.287,3.25053.574,6.50109a1.62139,1.62139,0,0,0,.50177,1.18091,1.64959,1.64959,0,0,0,1.21832.26883A1.62485,1.62485,0,0,0,278.4877,369.91452Z" transform="translate(-35.00146 -129.44578)"/><path class="aa4d121d-1566-4477-b5cc-ba93edb9b0a6" d="M286.99432,369.34979q.579-.07365,1.15772-.14963-.63322-4.82139-1.26648-9.64282-.55957.07342-1.11932.14469l-.44751-3.5156q4.8555-.61774,9.69284-1.40588a7.16969,7.16969,0,0,1,4.54739.43884,4.66845,4.66845,0,0,1,2.20624,3.54117,4.54594,4.54594,0,0,1-.83759,4.096,7.2121,7.2121,0,0,1-4.28164,1.94894q-1.24485.20283-2.49118.39481.23708,1.538.47409,3.076,1.10921-.17079,2.21753-.35028.28331,1.74919.56661,3.49841-4.97579.80562-9.97119,1.44092Q287.21808,371.10766,286.99432,369.34979Zm7.46259-7.30163a1.19459,1.19459,0,0,0,1.08963-1.57468l-.12405-.76739a1.45838,1.45838,0,0,0-.49048-.9834,1.32938,1.32938,0,0,0-1.02457-.17664q-.38.0596-.76.1181.27,1.75178.54,3.50361Q294.07228,362.10847,294.45691,362.04816Z" transform="translate(-35.00146 -129.44578)"/><path class="aa4d121d-1566-4477-b5cc-ba93edb9b0a6" d="M326.59488,351.42032q-.54757.15376-1.09561.30527,1.29579,4.687,2.59155,9.37408.56694-.15678,1.13327-.31573.47905,1.706.958,3.412-4.3314,1.21614-8.6901,2.29853l-.85424-3.43949q.54675-.13572,1.093-.27365-.92581-3.66727-1.85159-7.33444-.52569,5.86111-1.20309,11.73227-1.70929.40677-3.42237.79306-3.23579-4.90847-6.32608-9.87851.76927,3.64782,1.53852,7.29565.55014-.11586,1.09991-.23407.37235,1.73245.74457,3.46488-3.80283.817-7.62125,1.53308-.32675-1.7416-.65353-3.48319.57486-.10779,1.14938-.218-.91575-4.77589-1.8316-9.55164-.5555.10644-1.1113.2107-.3268-1.74162-.65353-3.48319,5.02944-.94326,10.03079-2.07214,1.87835,3.032,3.80951,6.04178.34676-3.54391.63928-7.08432,4.80075-1.16652,9.56848-2.505Q326.11585,349.71434,326.59488,351.42032Z" transform="translate(-35.00146 -129.44578)"/><path class="aa4d121d-1566-4477-b5cc-ba93edb9b0a6" d="M331.09833,363.93713q-.4845-1.70444-.969-3.409.56548-.16073,1.13047-.32376-1.3483-4.67217-2.69669-9.34439-.54621.15765-1.093.313-.48449-1.7045-.969-3.409,7.29117-2.07252,14.491-4.548,1.06122,3.08589,2.12237,6.1717-2.44408.84063-4.89957,1.63592-.45941-1.41866-.91885-2.83737-1.31264.42522-2.62845.83719.51022,1.62954,1.02048,3.25906.96862-.30332,1.93561-.61371.37645,1.173.7529,2.346-.97536.31306-1.95224.619.57473,1.83549,1.14944,3.671,1.36094-.42613,2.71866-.866-.52611-1.6245-1.05215-3.249,2.48386-.80447,4.95648-1.65494,1.13154,3.29041,2.26306,6.58081Q338.83048,361.74,331.09833,363.93713Z" transform="translate(-35.00146 -129.44578)"/><path class="aa4d121d-1566-4477-b5cc-ba93edb9b0a6" d="M353.99725,338.37881q3.44889-1.38111,6.86939-2.85745.702,1.62695,1.40417,3.25391-.52816.228-1.057.45376,2.60408,6.10245,5.2081,12.20484-3.10978,1.32734-6.24207,2.58075-5.07619-3.21795-9.96021-6.59955,1.08358,2.9062,2.16709,5.81235.53229-.19841,1.06384-.39911.62544,1.65787,1.25095,3.31582-3.6774,1.38766-7.38181,2.6745-.58135-1.6739-1.16275-3.3478.55774-.19378,1.11481-.38978-1.61394-4.5872-3.22794-9.17443-.5387.1896-1.07785.37689-.5814-1.67391-1.16275-3.34781,3.84576-1.336,7.661-2.7872,4.32024,2.99248,8.79471,5.8565-.96112-2.37392-1.92218-4.74777-.51092.20691-1.02228.41168Q354.65585,340.0238,353.99725,338.37881Z" transform="translate(-35.00146 -129.44578)"/><path class="aa4d121d-1566-4477-b5cc-ba93edb9b0a6" d="M379.411,332.58063q-1.78587.9099-3.58139,1.7933-.372-.75622-.744-1.51245-.664.3267-1.32931.64972,2.12388,4.37453,4.24759,8.74905.75284-.36552,1.50387-.73553.783,1.58958,1.566,3.1792-4.562,2.2473-9.18048,4.32916-.72816-1.61548-1.45633-3.23089.7604-.34278,1.51923-.69016-2.02346-4.42182-4.04694-8.84363-.67066.307-1.34256.61032.34671.76823.69339,1.53632-1.81668.82013-3.642,1.61359-1.04223-2.39805-2.08447-4.79612,7.834-3.40566,15.5033-7.3114Q378.224,330.25085,379.411,332.58063Z" transform="translate(-35.00146 -129.44578)"/><rect class="7e152508-d1c4-4fc0-bf38-f8d81599abc7" x="5.90958" y="167.71821" width="425.78813" height="10.86113"/><rect class="7e152508-d1c4-4fc0-bf38-f8d81599abc7" x="4.00492" y="47.07847" width="161.16469" height="10.86093"/><rect class="7e152508-d1c4-4fc0-bf38-f8d81599abc7" x="266.00993" y="47.07847" width="161.16469" height="10.86093"/><rect class="7e152508-d1c4-4fc0-bf38-f8d81599abc7" x="168.55308" y="169.91251" width="92.89263" height="33.03984"/><circle class="e7760323-820a-43fd-99c7-d5fc23c623e9" cx="215.27206" cy="48.63327" r="17.58582"/><path class="c0e6e6c7-1f3e-4f25-8339-cb24b81841f1" d="M273.81174,166.47031c-1.32165-2.8343-13.509.05156-27.22119,6.44565s-23.75674,13.8752-22.43515,16.70946a1.26,1.26,0,0,0,.25405.3469l49.503-22.78111A1.36441,1.36441,0,0,0,273.81174,166.47031Z" transform="translate(-35.00146 -129.44578)"/><path class="c0e6e6c7-1f3e-4f25-8339-cb24b81841f1" d="M251.37663,183.17976c12.67828-5.912,22.21344-12.7502,22.53583-15.98855l-49.503,22.78111C226.59492,192.18618,238.28722,189.28344,251.37663,183.17976Z" transform="translate(-35.00146 -129.44578)"/><path class="c0e6e6c7-1f3e-4f25-8339-cb24b81841f1" d="M250.27353,160.845a17.2541,17.2541,0,0,0-2.957.2591l-.8677.40462a.8978.8978,0,0,0-.24172,1.21542l.37164.797a.89788.89788,0,0,0,1.08649.5961l1.59376-.74319a.89777.89777,0,0,1,1.08649.59609l.37163.797a.8978.8978,0,0,0,1.0865.59606l4.09076-1.90752a.89774.89774,0,0,1,1.08645.596l.37168.797a.89784.89784,0,0,1-.24176,1.21547l-1.85939.867a.89777.89777,0,0,0-.24177,1.21542l.37168.797a.89774.89774,0,0,0,1.08645.5961l.21253-.09909a.89782.89782,0,0,1,1.08644.59609l.37164.797a.89772.89772,0,0,1-.24172,1.21543l-3.02823,1.4121a.89784.89784,0,0,0-.24176,1.21547l.37168.797a.89774.89774,0,0,0,1.08645.59606.89787.89787,0,0,1,1.08649.5961l.37233.79849a.89915.89915,0,0,1-.24134,1.21349l-2.6574,1.23916a.89783.89783,0,0,0-.24177,1.21547l.37168.797a.89774.89774,0,0,0,1.08645.5961l.21248-.09905a.89775.89775,0,0,1,1.08645.5961l.37168.797a.89774.89774,0,0,0,1.08645.59609l.90312-.42114a.89786.89786,0,0,1,1.08649.5961l.37164.797a.89788.89788,0,0,0,1.08649.5961l2.60323-1.21392a.8978.8978,0,0,1,1.08644.59609l.06625.14207A17.23034,17.23034,0,0,0,250.27353,160.845Z" transform="translate(-35.00146 -129.44578)"/><path class="7e152508-d1c4-4fc0-bf38-f8d81599abc7" d="M258.76671,193.874l-1.8399.85795A17.87814,17.87814,0,0,0,258.76671,193.874Z" transform="translate(-35.00146 -129.44578)"/><path class="0e10251f-6a53-4554-bb49-18fff9e38832" d="M264.66926,184.77,262.066,185.984a.89788.89788,0,0,1-1.08649-.5961l-.37164-.797a.89786.89786,0,0,0-1.08649-.5961l-.90312.42114a.89774.89774,0,0,1-1.08645-.59609l-.37168-.797a.89775.89775,0,0,0-1.08645-.5961l-.21248.09905a.89774.89774,0,0,1-1.08645-.5961l-.37168-.797a.89783.89783,0,0,1,.24177-1.21547l2.6574-1.23916a.89915.89915,0,0,0,.24134-1.21349l-.37233-.79849a.89787.89787,0,0,0-1.08649-.5961.89774.89774,0,0,1-1.08645-.59606l-.37168-.797a.89784.89784,0,0,1,.24176-1.21547l3.02823-1.4121a.89772.89772,0,0,0,.24172-1.21543l-.37164-.797a.89782.89782,0,0,0-1.08644-.59609l-.21253.09909a.89774.89774,0,0,1-1.08645-.5961l-.37168-.797a.89777.89777,0,0,1,.24177-1.21542l1.85939-.867a.89784.89784,0,0,0,.24176-1.21547l-.37168-.797a.89774.89774,0,0,0-1.08645-.596l-4.09076,1.90752a.8978.8978,0,0,1-1.0865-.59606l-.37163-.797a.89777.89777,0,0,0-1.08649-.59609l-1.59376.74319a.89788.89788,0,0,1-1.08649-.5961l-.37164-.797a.8978.8978,0,0,1,.24172-1.21542l.8677-.40462A17.23226,17.23226,0,1,0,265.822,185.5082l-.06625-.14207A.8978.8978,0,0,0,264.66926,184.77Z" transform="translate(-35.00146 -129.44578)"/><path class="05483ccb-47c4-48c5-b4f9-215e454202c1" d="M233.03942,178.07905a17.21008,17.21008,0,0,0,22.8574,16.28118.7888.7888,0,0,1,.33459-.90372l.90312-.42114a.89776.89776,0,0,0,.24176-1.21542l-.37168-.797a.89775.89775,0,0,0-1.08645-.5961l-2.60322,1.21392a.89785.89785,0,0,1-1.08649-.59609l-.37164-.797a.89778.89778,0,0,0-1.08649-.5961l-.90312.42114a.89787.89787,0,0,1-1.08649-.5961l-.37164-.797a.89783.89783,0,0,0-1.08645-.59609l-.21248.09909a.89782.89782,0,0,1-1.08645-.5961l-.37168-.797a.89777.89777,0,0,1,.24176-1.21542l2.65741-1.23917a.89915.89915,0,0,0,.24133-1.21349l-.37236-.79849a.89782.89782,0,0,0-1.08645-.59609.89774.89774,0,0,1-1.08645-.5961l-.37168-.797a.8978.8978,0,0,1,.24172-1.21542l3.02827-1.41211a.89776.89776,0,0,0,.24172-1.21542l-.37164-.797a.89778.89778,0,0,0-1.08649-.5961l-.21248.0991a.89783.89783,0,0,1-1.08645-.5961l-.37168-.797a.89777.89777,0,0,1,.24176-1.21542l1.85939-.8671a.89777.89777,0,0,0,.24177-1.21542l-.37168-.797a.89782.89782,0,0,0-1.08645-.5961L243.05256,171.02a.89778.89778,0,0,1-1.08649-.59609l-.37164-.797a.89779.89779,0,0,0-1.08649-.59606l-1.59376.74319a.89785.89785,0,0,1-1.08649-.5961l-.37163-.797a.89786.89786,0,0,1,.24171-1.21547l4.622-2.15529a.89779.89779,0,0,0,.24176-1.21543l-.37168-.797c-.0146-.03129-.03285-.05877-.04933-.08818A17.22883,17.22883,0,0,0,233.03942,178.07905Z" transform="translate(-35.00146 -129.44578)"/><path class="c0e6e6c7-1f3e-4f25-8339-cb24b81841f1" d="M251.37663,183.17976c12.67828-5.912,22.21344-12.7502,22.53583-15.98855a1.36441,1.36441,0,0,0-.10072-.7209c-1.32165-2.8343-13.509.05156-27.22119,6.44565a113.43864,113.43864,0,0,0-13.41249,7.311,17.15162,17.15162,0,0,0,3.657,8.62431A112.44107,112.44107,0,0,0,251.37663,183.17976Z" transform="translate(-35.00146 -129.44578)"/><path class="c0e6e6c7-1f3e-4f25-8339-cb24b81841f1" d="M224.1554,189.62542a1.26,1.26,0,0,0,.25405.3469c1.25938,1.27575,5.67911.84954,11.70045-.90625a17.84921,17.84921,0,0,1-3.586-8.4096C226.71582,184.49955,223.35644,187.912,224.1554,189.62542Z" transform="translate(-35.00146 -129.44578)"/><path class="c0e6e6c7-1f3e-4f25-8339-cb24b81841f1" d="M273.91246,167.19121a1.36441,1.36441,0,0,0-.10072-.7209c-.70138-1.50412-4.46309-1.397-9.88851-.00988a17.8955,17.8955,0,0,1,3.78465,7.41125C271.45989,171.14721,273.75717,168.75105,273.91246,167.19121Z" transform="translate(-35.00146 -129.44578)"/><path class="7e152508-d1c4-4fc0-bf38-f8d81599abc7" d="M268.08063,175.95231c-.21716.14014-.43557.2804-.658.42123.05539.56123.085,1.12994.085,1.70551a17.13107,17.13107,0,0,1-1.68568,7.42915,17.32061,17.32061,0,0,1-9.92513,8.852,17.15923,17.15923,0,0,1-17.94007-4.24318c-.25279.08055-.5.15607-.74885.233a17.88871,17.88871,0,0,0,18.94485,4.67166q.39111-.13634.77406-.28976l1.8399-.85795a18.06741,18.06741,0,0,0,5.90091-5.10436c.29-.3895.56214-.79286.82043-1.20567q.37057-.5923.69476-1.2147a17.82088,17.82088,0,0,0,2.02825-8.27023A18.01039,18.01039,0,0,0,268.08063,175.95231Z" transform="translate(-35.00146 -129.44578)"/><path class="c0e2cc53-f709-47bb-ac5c-21f3dc23796f" d="M278.78042,164.951a1.45128,1.45128,0,0,0-.04706-.143c-.99264-2.12867-7.05571-1.57821-15.39425,1.00007q.29993.31911.58412.65238c5.42542-1.38716,9.18713-1.49424,9.88851.00988a1.36441,1.36441,0,0,1,.10072.7209c-.15529,1.55984-2.45257,3.956-6.20458,6.68047-.20257.14709-.40822.29478-.6192.44372a105.279,105.279,0,0,1-15.71205,8.86436,112.44107,112.44107,0,0,1-14.54157,5.67151c-.24473.0741-.48542.1449-.72516.2148-6.02134,1.75579-10.44107,2.182-11.70045.90625a1.26,1.26,0,0,1-.25405-.3469c-.799-1.71342,2.56042-5.12587,8.36847-8.96895-.02164-.14949-.03954-.30015-.05745-.4508-7.15209,4.61443-11.42906,8.80892-10.70507,10.9853a1.45625,1.45625,0,0,0,.05234.15911c.99264,2.12867,7.05571,1.57826,15.39421-1,.24884-.07694.49606-.15246.74885-.233a137.75994,137.75994,0,0,0,29.46587-13.74351c.22244-.14083.44085-.28109.658-.42123C275.25024,171.32654,279.53082,167.12278,278.78042,164.951Z" transform="translate(-35.00146 -129.44578)"/><path class="7e152508-d1c4-4fc0-bf38-f8d81599abc7" d="M263.92323,166.46043q-.2842-.3334-.58412-.65238a17.886,17.886,0,0,0-13.06558-5.66654q-.47664,0-.94713.02534a17.96364,17.96364,0,0,0-16.99041,17.9122,18.019,18.019,0,0,0,.13043,2.12662c.01791.15065.03581.30131.05745.4508a17.84921,17.84921,0,0,0,3.586,8.4096c.23974-.0699.48043-.1407.72516-.2148a17.15162,17.15162,0,0,1-3.657-8.62431c-.01842-.14731-.03895-.29388-.05363-.44231-.05538-.56127-.085-1.13-.085-1.7056a17.22272,17.22272,0,0,1,29.55084-12.038q.29586.30262.5766.61958a17.19645,17.19645,0,0,1,3.92182,7.65477c.211-.14894.41663-.29663.6192-.44372A17.8955,17.8955,0,0,0,263.92323,166.46043Z" transform="translate(-35.00146 -129.44578)"/></svg>