<svg id="a80f9218-a1b9-49aa-aea0-d4d3b0e1b243" data-name="Layer 1" xmlns="http://www.w3.org/2000/svg" viewBox="0 0 431.7 245.79"><title>logo</title><path d="M106.64,264.64h4.78v15.69H85.31L71,250.68l-4.4,3.63v10.33h4.59v15.69H35V264.64h4.78v-43H35V205.92H71.15V221.6H66.56v12.63L81.39,221.6h-6V205.92h35.58V221.6h-4.78l-16,13.2Z" transform="translate(-35 -129.45)"/><path d="M120.93,272.49q-9.51-9.19-9.51-29.37t9.51-29.36q9.52-9.18,27-9.18t27,9.18q9.53,9.18,9.52,29.36T175,272.49q-9.51,9.18-27,9.18T120.93,272.49Zm31.9-9.57c1.08-1.15,1.63-2.93,1.63-5.35V228.68c0-2.42-.55-4.21-1.63-5.35a7.73,7.73,0,0,0-9.75,0c-1.09,1.14-1.63,2.93-1.63,5.35v28.89q0,3.72,1.63,5.4a6.46,6.46,0,0,0,4.87,1.67A6.39,6.39,0,0,0,152.83,262.92Z" transform="translate(-35 -129.45)"/><path d="M197,272.49q-9.81-9.19-9.8-29.37,0-38.53,37.49-38.54a61.86,61.86,0,0,1,16.88,2.2q7.78,2.21,11.62,4.88v23.91h-23v-6.89c0-2.42-.54-4.21-1.62-5.35a7.75,7.75,0,0,0-9.76,0c-1.08,1.14-1.62,2.93-1.62,5.35v28.89q0,3.63,1.62,5.35a7.78,7.78,0,0,0,9.76,0q1.62-1.73,1.62-5.35v-7.75h23v24.77q-3.93,2.69-11.62,4.88a60.85,60.85,0,0,1-16.69,2.2Q206.78,281.67,197,272.49Z" transform="translate(-35 -129.45)"/><path d="M333.3,221.6h-4.78v43h4.78v15.69H297.15V264.64h4.59V248.86H288.35v15.78h4.59v15.69H256.79V264.64h4.78v-43h-4.78V205.92h36.15V221.6h-4.59v14.54h13.39V221.6h-4.59V205.92H333.3Z" transform="translate(-35 -129.45)"/><path d="M339,280.33V264.64H354v15.69Z" transform="translate(-35 -129.45)"/><path d="M360.46,280.33V264.64h4.79v-43h-4.79V205.92h36.35V221.6H392v43h4.78v15.69Z" transform="translate(-35 -129.45)"/><path d="M400.63,280.33V264.64h4.79v-43h-4.79V205.92h64.56V234.8H443.77V221.6H432.19v15.12h8.42v10.9h-8.42v17h11.58V249.53h21.42v30.8Z" transform="translate(-35 -129.45)"/><path d="M162,167.41c-.53-1-1.07-2.1-1.6-3.16l1-.52q-2.19-4.35-4.37-8.69l-1.09.55-1.61-3.16q7.49-3.81,15.18-7l2.49,6c-1.65.68-3.29,1.39-4.92,2.11-.41-.91-.81-1.81-1.21-2.72l-2.69,1.21,1.44,3.1,1.91-.87,1,2.25-1.89.86c.53,1.16,1.07,2.33,1.61,3.49l2.55-1.16-1.38-3.12q2.41-1.06,4.84-2.07c.89,2.14,1.77,4.28,2.66,6.43Q168.91,163.91,162,167.41Z" transform="translate(-35 -129.45)"/><path d="M183.7,140.18q3.83-1.27,7.66-2.38l1,3.4-1.15.34q1.89,6.36,3.77,12.72-3,.9-6,1.9-4.68-3.58-9.63-6.95,1.08,2.91,2.15,5.82l1-.38,1.21,3.33q-3.48,1.26-6.92,2.67c-.45-1.09-.89-2.19-1.34-3.28l1.07-.43q-1.82-4.51-3.62-9l-1.13.45c-.44-1.09-.89-2.18-1.34-3.28q4.13-1.68,8.29-3.18,4.51,3,8.78,6.15c-.52-1.62-1.05-3.25-1.58-4.87l-1.1.36C184.45,142.42,184.08,141.3,183.7,140.18Z" transform="translate(-35 -129.45)"/><path d="M212.28,144.48l-1.13.22.84,4.24a12.06,12.06,0,0,1-2.62,1.53,21.75,21.75,0,0,1-3.9,1.31,10,10,0,0,1-6.92-.44c-1.91-.94-3.3-2.82-4.12-5.68s-.65-5.28.63-7.06,3.49-3.09,6.59-3.82a19.09,19.09,0,0,1,4.32-.53,11.62,11.62,0,0,1,3.17.34q.5,2.53,1,5.07c-1.93.38-3.86.79-5.77,1.23l-.23-1a1.47,1.47,0,0,0-2.08-1.26,1.82,1.82,0,0,0-1.2.7,1.71,1.71,0,0,0-.09,1.37c.5,2,1,4.08,1.51,6.12A1.85,1.85,0,0,0,203,148a1.81,1.81,0,0,0,1.33.09,1.77,1.77,0,0,0,1.14-.68,1.79,1.79,0,0,0,.1-1.37l0-.15-1.21.29c-.25-1.05-.5-2.09-.74-3.14q4-.95,8.09-1.73C211.87,142.37,212.07,143.42,212.28,144.48Z" transform="translate(-35 -129.45)"/><path d="M213.92,149.67l-.66-3.49,1.12-.21-1.76-9.56-1.18.22-.66-3.48c3-.58,6.06-1.08,9.1-1.52l.51,3.5-1.18.18c.48,3.2,1,6.41,1.45,9.61l1.12-.16.51,3.51Q218.09,148.87,213.92,149.67Z" transform="translate(-35 -129.45)"/><path d="M234.71,130c2.64-.19,5.29-.34,7.93-.43,0,1.18.09,2.36.13,3.54l-1.19,0q.27,6.63.55,13.25-3.13.14-6.25.36-3.62-4.62-7.55-9.1l.66,6.17,1.09-.12.36,3.53q-3.65.38-7.27.88c-.16-1.17-.32-2.34-.49-3.51l1.13-.16c-.43-3.21-.87-6.42-1.3-9.63l-1.18.16c-.16-1.17-.33-2.34-.49-3.51,2.89-.41,5.79-.75,8.69-1q3.58,4,6.93,8.12c-.12-1.7-.23-3.4-.35-5.11l-1.14.08C234.89,132.37,234.8,131.19,234.71,130Z" transform="translate(-35 -129.45)"/><path d="M244.08,146.35c0-1.18-.07-2.36-.11-3.54l1.14,0c-.08-3.24-.17-6.48-.25-9.72l-1.19,0c0-1.18-.07-2.36-.11-3.54q8.16-.26,16.33.12l-.3,6.52c-1.75-.08-3.5-.14-5.25-.17l.06-3-2.88,0c0,1.14,0,2.28,0,3.42l2.06,0c0,.82,0,1.65,0,2.47l-2,0c0,1.28,0,2.57,0,3.85l2.74,0c0-1.14.05-2.28.07-3.42q2.58.06,5.16.18-.15,3.47-.32,6.95C254.11,146.24,249.09,146.2,244.08,146.35Z" transform="translate(-35 -129.45)"/><path d="M260,146.51l.18-3.54,1.13.06.55-9.71-1.19-.06.18-3.54q8.16.41,16.28,1.45l-.84,6.48c-1.74-.23-3.48-.43-5.22-.61l.3-3-2.86-.28c-.11,1.14-.21,2.27-.31,3.4l2.06.2c-.08.81-.17,1.63-.25,2.45l-2-.19c-.12,1.27-.23,2.55-.34,3.83l2.73.26c.12-1.13.23-2.26.35-3.4,1.71.18,3.43.38,5.14.6-.3,2.3-.59,4.6-.89,6.9Q267.47,146.89,260,146.51Z" transform="translate(-35 -129.45)"/><path d="M276.25,144.45l1.13.15q.66-4.82,1.34-9.63l-1.18-.16c.15-1.17.31-2.34.46-3.52q5.52.74,11,1.77a8,8,0,0,1,4.46,2.05,4.17,4.17,0,0,1,.81,4,4.77,4.77,0,0,1-1.15,2.31,3.34,3.34,0,0,1-2.07,1.07l0,.22a2.29,2.29,0,0,1,1.64,2.95l-.35,1.63,1,.23c-.26,1.15-.52,2.31-.77,3.46-2.31-.52-4.63-1-6.95-1.43l.93-5a2.5,2.5,0,0,0,0-1.3,1.28,1.28,0,0,0-.71-.72,6,6,0,0,0-1.56-.43l-.6,3.49,1.47.26c-.2,1.16-.41,2.33-.62,3.49q-4.36-.78-8.74-1.37C275.94,146.79,276.09,145.62,276.25,144.45Zm9.71-4.74a1.2,1.2,0,0,0,1.59-1.12l.15-.76a1.47,1.47,0,0,0-.15-1.1,1.44,1.44,0,0,0-1-.51l-1.27-.22c-.2,1.16-.41,2.32-.61,3.49Z" transform="translate(-35 -129.45)"/><path d="M293.37,151.14c.27-1.16.53-2.31.79-3.46l1.11.26c.74-3.16,1.48-6.31,2.23-9.47l-1.17-.27c.26-1.15.53-2.3.79-3.45,3,.68,6,1.44,9,2.26-.31,1.14-.63,2.27-.94,3.41l-1.16-.31q-1.26,4.69-2.53,9.39l1.11.3c-.32,1.14-.63,2.28-.94,3.42C298.89,152.46,296.14,151.77,293.37,151.14Z" transform="translate(-35 -129.45)"/><path d="M320.47,141.52c2.53.9,5,1.84,7.55,2.84-.44,1.09-.87,2.19-1.31,3.29l-1.12-.44-4.83,12.36c-2-.78-4-1.52-6-2.22q-1.49-5.7-3.33-11.39-.93,3-1.87,5.91l1,.34-1.08,3.37c-2.35-.75-4.7-1.46-7.07-2.12l1-3.42,1.1.32q1.33-4.68,2.68-9.35l-1.16-.33,1-3.41q4.24,1.18,8.44,2.56,1.72,5.11,3.17,10.24c.58-1.6,1.15-3.21,1.73-4.82l-1.09-.39C319.69,143.75,320.08,142.64,320.47,141.52Z" transform="translate(-35 -129.45)"/><path d="M340.69,162.6l-1.05-.53c-.65,1.28-1.29,2.57-1.94,3.86a12.43,12.43,0,0,1-3.07-.44,21.66,21.66,0,0,1-3.94-1.39,10.24,10.24,0,0,1-5.28-4.63c-1-1.93-.9-4.26.21-7s2.74-4.56,4.86-5.18,4.68-.28,7.63,1.07a20.09,20.09,0,0,1,3.81,2.27,11.85,11.85,0,0,1,2.34,2.24L342,157.47c-1.8-.9-3.61-1.78-5.42-2.62l.43-.92a1.73,1.73,0,0,0,.16-1.37,1.84,1.84,0,0,0-1.06-.92,1.86,1.86,0,0,0-1.39-.19,1.68,1.68,0,0,0-.92,1l-2.56,5.76a1.84,1.84,0,0,0,2.18,2.43,1.75,1.75,0,0,0,.92-1l.07-.14-1.15-.53,1.34-2.93c2.55,1.17,5.09,2.4,7.6,3.68C341.66,160.68,341.18,161.64,340.69,162.6Z" transform="translate(-35 -129.45)"/><path d="M140.74,336.23c2.23.94,4.47,1.86,6.71,2.74l-1.29,3.3-.86-.34q-4,5.54-8.22,11-3.32-1.37-6.62-2.82.89-4.71,1.82-9.41l-.21-.09q-2.94,3.79-5.94,7.55c-2.19-1-4.36-2-6.53-3.09q1.19-6.81,2.54-13.56l-.83-.42,1.61-3.16q3.77,1.92,7.59,3.72L129,334.85l-.79-.38q-.78,2.68-1.54,5.37l.21.1q3-3.62,5.83-7.27,3,1.36,6,2.67c-.59,3-1.15,6.08-1.7,9.12l.21.09q1.5-2.35,3-4.72l-.8-.34Z" transform="translate(-35 -129.45)"/><path d="M142,354.9l1.29-3.3,1.1.43,3.51-9.08-1.07-.41,1.29-3.3q7.11,2.77,14.34,5.16l-2,6.19c-1.64-.53-3.27-1.09-4.9-1.66l1-2.81-2.61-.93c-.39,1.07-.77,2.15-1.16,3.22l1.92.68c-.27.77-.54,1.55-.82,2.32-.64-.22-1.29-.45-1.93-.69-.44,1.21-.87,2.42-1.31,3.62q1.35.5,2.7,1c.38-1.07.75-2.15,1.13-3.22q2.46.85,4.95,1.68c-.73,2.2-1.45,4.4-2.18,6.61Q149.56,357.85,142,354.9Z" transform="translate(-35 -129.45)"/><path d="M159.17,357.28l1.12.36q1.49-4.62,3-9.26l-1.09-.35c.37-1.12.74-2.25,1.1-3.37q4.92,1.6,9.87,3a7.79,7.79,0,0,1,3.94,2.23,3.65,3.65,0,0,1,.72,3.46,3.54,3.54,0,0,1-1.17,1.91,4.25,4.25,0,0,1-1.79.89,6.16,6.16,0,0,1-1.78.13l0,.21a6.94,6.94,0,0,1,2.6,1.71,3.19,3.19,0,0,1,.54,3.18,3.49,3.49,0,0,1-2.65,2.73,9.6,9.6,0,0,1-5-.28c-3.51-1-7-2.07-10.47-3.2C158.44,359.52,158.8,358.4,159.17,357.28ZM169.55,354a1.32,1.32,0,0,0,1,0,1.41,1.41,0,0,0,.61-.91l.22-.75a1.45,1.45,0,0,0,0-1.1,1.4,1.4,0,0,0-.86-.6l-1.18-.34c-.33,1.13-.67,2.26-1,3.39ZM168,360a1.41,1.41,0,0,0,1.08,0,1.45,1.45,0,0,0,.62-.92l.26-.91a1.4,1.4,0,0,0,0-1.1,1.35,1.35,0,0,0-.88-.6l-1.36-.4-1.05,3.56Z" transform="translate(-35 -129.45)"/><path d="M183.52,364.06l1.14.27,2.16-9.46-1.1-.26.81-3.47q4.42,1,8.88,1.92a8.78,8.78,0,0,1,5.48,3c1.23,1.55,1.61,3.79,1.12,6.71s-1.61,4.92-3.36,5.95a9.08,9.08,0,0,1-6.52.79q-4.73-.94-9.42-2ZM192.4,366a1.67,1.67,0,0,0,1.25-.15,1.64,1.64,0,0,0,.62-1.11c.42-2.14.83-4.27,1.25-6.41a1.4,1.4,0,0,0-1.21-1.87l-1.28-.26c-.65,3.18-1.3,6.35-2,9.53Z" transform="translate(-35 -129.45)"/><path d="M201.4,371.24c.19-1.17.39-2.33.58-3.5l1.15.19,1.56-9.6-1.12-.18c.2-1.17.39-2.33.58-3.5q7.44,1.23,14.92,2.06-.36,3.26-.73,6.49c-1.69-.19-3.38-.39-5.07-.61.13-1,.26-2,.38-3l-2.7-.36c-.16,1.13-.32,2.26-.47,3.38l2,.27c-.11.82-.22,1.63-.32,2.45l-2-.28c-.18,1.27-.36,2.54-.53,3.81l2.8.38c.14-1.13.29-2.26.43-3.39,1.71.22,3.43.43,5.14.62-.26,2.3-.52,4.61-.77,6.91C211.93,372.84,206.65,372.11,201.4,371.24Z" transform="translate(-35 -129.45)"/><path d="M229.23,357.66q3.71.27,7.42.45c-.06,1.18-.11,2.36-.17,3.54l-.9,0q-2.36,6.52-4.89,13-3.83-.24-7.63-.59-1.5-6.81-2.81-13.61l-.9-.1c.13-1.17.25-2.35.38-3.52,2.84.3,5.68.57,8.52.79-.09,1.18-.19,2.36-.28,3.53L226.8,361c.32,2.45.66,4.9,1,7.34l.23,0c.72-2.37,1.42-4.73,2.1-7.11l-1.17-.08Z" transform="translate(-35 -129.45)"/><path d="M236.6,374.94c.06-1.18.11-2.36.16-3.54l1.17.05q.19-4.86.4-9.72l-1.13-.05c.06-1.18.11-2.36.16-3.54q7.51.35,15,.27l.06,6.53q-2.55,0-5.1,0c0-1,0-2,0-3l-2.72,0c0,1.14,0,2.28-.07,3.41q1,0,2,0l0,2.47-2,0c0,1.28-.05,2.56-.08,3.84l2.82,0c0-1.14,0-2.27,0-3.41h5.16l.06,7Q244.57,375.29,236.6,374.94Z" transform="translate(-35 -129.45)"/><path d="M253.42,375.22c0-1.18,0-2.36,0-3.55h1.17l-.15-9.73-1.13,0c0-1.18,0-2.36,0-3.54q4.7-.06,9.39-.27c.05,1.18.1,2.36.16,3.54l-2.08.09q.19,4.86.37,9.71l2.1-.08-.09-2c1.54-.07,3.07-.15,4.6-.24.12,1.84.23,3.68.34,5.52Q260.73,375.14,253.42,375.22Z" transform="translate(-35 -129.45)"/><path d="M270.9,372.72c-1.65-1.27-2.56-3.43-2.75-6.46s.42-5.29,1.81-6.77a11,11,0,0,1,12.61-1.18c1.64,1.2,2.66,3.3,3,6.31s-.11,5.31-1.5,6.87-3.53,2.49-6.4,2.76S272.55,374,270.9,372.72Zm7.59-2.81a1.58,1.58,0,0,0,.27-1.24c-.21-2.16-.43-4.33-.64-6.49a1.68,1.68,0,0,0-.5-1.17,1.58,1.58,0,0,0-1.19-.28,1.53,1.53,0,0,0-1.11.5,1.65,1.65,0,0,0-.27,1.23l.57,6.51a1.65,1.65,0,0,0,.5,1.18,1.69,1.69,0,0,0,1.22.27A1.61,1.61,0,0,0,278.49,369.91Z" transform="translate(-35 -129.45)"/><path d="M287,369.35l1.16-.15-1.26-9.64-1.12.14-.45-3.51c3.24-.42,6.47-.88,9.69-1.41a7.15,7.15,0,0,1,4.55.44,4.68,4.68,0,0,1,2.21,3.54,4.57,4.57,0,0,1-.84,4.1,7.23,7.23,0,0,1-4.28,1.95l-2.5.39.48,3.08,2.22-.35c.19,1.16.37,2.33.56,3.49-3.31.54-6.64,1-10,1.45Zm7.47-7.3a1.21,1.21,0,0,0,1.09-1.58l-.13-.76a1.46,1.46,0,0,0-.49-1,1.33,1.33,0,0,0-1-.17l-.76.11.54,3.51Z" transform="translate(-35 -129.45)"/><path d="M326.59,351.42l-1.09.31,2.59,9.37,1.13-.32,1,3.42c-2.89.81-5.78,1.57-8.69,2.29l-.85-3.44,1.09-.27c-.62-2.44-1.23-4.89-1.85-7.33-.35,3.9-.75,7.82-1.2,11.73l-3.43.79q-3.22-4.91-6.32-9.88.76,3.66,1.54,7.3l1.1-.23c.24,1.15.49,2.31.74,3.46-2.53.54-5.08,1.06-7.62,1.53-.22-1.16-.44-2.32-.65-3.48l1.15-.22c-.62-3.18-1.23-6.37-1.84-9.55l-1.11.21c-.22-1.16-.43-2.32-.65-3.48q5-.94,10-2.07,1.88,3,3.81,6c.23-2.36.44-4.73.64-7.09q4.8-1.15,9.57-2.5C326,349.15,326.28,350.28,326.59,351.42Z" transform="translate(-35 -129.45)"/><path d="M331.1,363.94c-.32-1.14-.65-2.28-1-3.41l1.13-.33-2.7-9.34-1.09.31c-.32-1.13-.65-2.27-1-3.41q7.29-2.07,14.49-4.54,1.06,3.07,2.12,6.17c-1.62.56-3.26,1.1-4.9,1.63l-.91-2.83-2.63.83,1,3.26,1.93-.61c.25.78.51,1.56.76,2.34l-2,.62c.39,1.23.77,2.45,1.15,3.67l2.72-.86-1.05-3.25q2.49-.81,5-1.65c.75,2.19,1.51,4.38,2.26,6.58Q338.83,361.75,331.1,363.94Z" transform="translate(-35 -129.45)"/><path d="M354,338.38q3.45-1.38,6.87-2.86c.46,1.09.93,2.17,1.4,3.26l-1.06.45,5.21,12.2q-3.1,1.33-6.24,2.58-5.07-3.21-10-6.59,1.08,2.9,2.17,5.81l1.06-.4c.42,1.1.83,2.21,1.25,3.31q-3.68,1.39-7.38,2.68c-.39-1.12-.78-2.23-1.16-3.35l1.11-.39q-1.61-4.59-3.23-9.17l-1.07.37-1.17-3.34q3.85-1.33,7.66-2.79,4.32,3,8.8,5.86l-1.92-4.75-1,.41C354.88,340.57,354.44,339.48,354,338.38Z" transform="translate(-35 -129.45)"/><path d="M379.41,332.58c-1.19.61-2.38,1.21-3.58,1.79-.25-.5-.5-1-.74-1.51l-1.33.65q2.12,4.38,4.24,8.75l1.51-.74,1.56,3.18q-4.56,2.25-9.18,4.33c-.48-1.07-1-2.15-1.45-3.23l1.52-.69-4-8.84-1.34.61.69,1.54L363.62,340l-2.09-4.8q7.85-3.41,15.51-7.31Z" transform="translate(-35 -129.45)"/><polygon points="215 24.65 219.29 39.34 234.58 38.88 221.94 47.5 227.1 61.9 215 52.54 202.9 61.9 208.06 47.5 195.42 38.88 210.71 39.34 215 24.65"/><rect x="5.91" y="167.72" width="425.79" height="10.86"/><rect x="4.01" y="47.08" width="161.16" height="10.86"/><rect x="266.01" y="47.08" width="161.16" height="10.86"/><rect x="168.55" y="169.91" width="92.89" height="33.04"/></svg>